<mxfile host="app.diagrams.net" modified="2024-05-30T17:57:17.828Z" agent="Mozilla/5.0 (Windows NT 10.0; Win64; x64) AppleWebKit/537.36 (KHTML, like Gecko) Chrome/125.0.0.0 Safari/537.36" etag="xbXrnltPiEmtsuOCwMjK" version="24.4.9" type="github" pages="4">
  <diagram name="Inicio" id="9kVUpgfN9KOTXXjgpbHZ">
    <mxGraphModel dx="1434" dy="772" grid="1" gridSize="10" guides="1" tooltips="1" connect="1" arrows="1" fold="1" page="1" pageScale="1" pageWidth="850" pageHeight="1100" math="0" shadow="0">
      <root>
        <mxCell id="0" />
        <mxCell id="1" parent="0" />
        <UserObject label="" BpmnName="Edgar Emir Mejía Recinos/Hesler Calderón" tags="Flowchart" id="2">
          <mxCell style="vsdxID=1;fillColor=none;gradientColor=none;strokeColor=none;spacingTop=-1;spacingBottom=-1;spacingLeft=-1;spacingRight=-1;points=[[0,0.75,0],[0,0.5,0],[0,0.25,0],[0.25,0,0],[0.5,0,0],[0.75,0,0],[1,0.25,0],[1,0.5,0],[1,0.75,0],[0.75,1,0],[0.5,1,0],[0.25,1,0]];labelBackgroundColor=none;rounded=1;html=1;whiteSpace=wrap;" parent="1" vertex="1">
            <mxGeometry x="710" y="749" width="345" height="38" as="geometry" />
          </mxCell>
        </UserObject>
        <mxCell id="3" style="vsdxID=2;fillColor=none;gradientColor=none;shape=stencil(nZCxDsIwDES/xitKk6V7KT/AF0TUEIuQVGmgwNeT9kCqOjB0s++efdKRaQZneyathpzilUfpsiOzJ60lOE6Sy0SmJdOcY+JLivfQYe9tIbWaFe5wU020VjadjvJmaPWu0jV0HN7iYwp8wlawXt8HCvsBqJewQH/mJvgPuhFcxZdhrgRlifdodOmvKywS6jftBw==);strokeColor=#000000;spacingTop=-1;spacingBottom=-1;spacingLeft=-1;spacingRight=-1;points=[[0,0.75,0],[0,0.5,0],[0,0.25,0],[0.25,0,0],[0.5,0,0],[0.75,0,0],[1,0.25,0],[1,0.5,0],[1,0.75,0],[0.75,1,0],[0.5,1,0],[0.25,1,0]];labelBackgroundColor=none;rounded=1;html=1;whiteSpace=wrap;" parent="2" vertex="1">
          <mxGeometry width="345" height="38" as="geometry" />
        </mxCell>
        <mxCell id="5" value="&lt;div style=&quot;font-size: 1px&quot;&gt;&lt;/div&gt;" style="verticalAlign=middle;align=center;overflow=width;vsdxID=6;fillColor=none;gradientColor=none;strokeColor=none;strokeWidth=2;spacingTop=-3;spacingBottom=-3;spacingLeft=-3;spacingRight=-3;points=[[0,0.75,0],[0,0.5,0],[0,0.25,0],[0.25,0,0],[0.5,0,0],[0.75,0,0],[1,0.25,0],[1,0.5,0],[1,0.75,0],[0.75,1,0],[0.5,1,0],[0.25,1,0]];labelBackgroundColor=none;rounded=0;html=1;whiteSpace=wrap;" parent="2" vertex="1">
          <mxGeometry x="173" y="18" width="16" height="16" as="geometry" />
        </mxCell>
        <mxCell id="8" value="&lt;div style=&quot;font-size: 1px&quot;&gt;&lt;/div&gt;" style="verticalAlign=middle;align=center;overflow=width;vsdxID=14;fillColor=none;gradientColor=none;strokeColor=none;spacingTop=-1;spacingBottom=-1;spacingLeft=-1;spacingRight=-1;points=[[0,0.75,0],[0,0.5,0],[0,0.25,0],[0.25,0,0],[0.5,0,0],[0.75,0,0],[1,0.25,0],[1,0.5,0],[1,0.75,0],[0.75,1,0],[0.5,1,0],[0.25,1,0]];labelBackgroundColor=none;rounded=0;html=1;whiteSpace=wrap;" parent="2" vertex="1">
          <mxGeometry x="5" y="5" width="14" height="14" as="geometry" />
        </mxCell>
        <mxCell id="10" value="&lt;div style=&quot;font-size: 1px&quot;&gt;&lt;font style=&quot;font-size:16.93px;font-family:Calibri;color:#0c0c0c;direction:ltr;letter-spacing:0px;line-height:120%;opacity:1&quot;&gt;Edgar Emir Mejía Recinos&lt;br&gt;&lt;/font&gt;&lt;/div&gt;" style="text;vsdxID=1;fillColor=none;gradientColor=none;strokeColor=none;spacingTop=-1;spacingBottom=-1;spacingLeft=-1;spacingRight=-1;points=[[0,0.75,0],[0,0.5,0],[0,0.25,0],[0.25,0,0],[0.5,0,0],[0.75,0,0],[1,0.25,0],[1,0.5,0],[1,0.75,0],[0.75,1,0],[0.5,1,0],[0.25,1,0]];labelBackgroundColor=none;rounded=1;html=1;whiteSpace=wrap;verticalAlign=middle;align=center;;html=1;" parent="2" vertex="1">
          <mxGeometry y="18.95" width="345.37" as="geometry" />
        </mxCell>
        <UserObject label="" BpmnName="Jun/2020" tags="Flowchart" id="11">
          <mxCell style="vsdxID=24;fillColor=none;gradientColor=none;strokeColor=none;spacingTop=-1;spacingBottom=-1;spacingLeft=-1;spacingRight=-1;points=[[0,0.75,0],[0,0.5,0],[0,0.25,0],[0.25,0,0],[0.5,0,0],[0.75,0,0],[1,0.25,0],[1,0.5,0],[1,0.75,0],[0.75,1,0],[0.5,1,0],[0.25,1,0]];labelBackgroundColor=none;rounded=1;html=1;whiteSpace=wrap;" parent="1" vertex="1">
            <mxGeometry x="710" y="799" width="345" height="38" as="geometry" />
          </mxCell>
        </UserObject>
        <mxCell id="12" style="vsdxID=25;fillColor=none;gradientColor=none;shape=stencil(nZCxDsIwDES/xitKk6V7KT/AF0TUEIuQVGmgwNeT9kCqOjB0s++efdKRaQZneyathpzilUfpsiOzJ60lOE6Sy0SmJdOcY+JLivfQYe9tIbWaFe5wU020VjadjvJmaPWu0jV0HN7iYwp8wlawXt8HCvsBqJewQH/mJvgPuhFcxZdhrgRlifdodOmvKywS6jftBw==);strokeColor=#000000;spacingTop=-1;spacingBottom=-1;spacingLeft=-1;spacingRight=-1;points=[[0,0.75,0],[0,0.5,0],[0,0.25,0],[0.25,0,0],[0.5,0,0],[0.75,0,0],[1,0.25,0],[1,0.5,0],[1,0.75,0],[0.75,1,0],[0.5,1,0],[0.25,1,0]];labelBackgroundColor=none;rounded=1;html=1;whiteSpace=wrap;" parent="11" vertex="1">
          <mxGeometry width="345" height="38" as="geometry" />
        </mxCell>
        <mxCell id="14" value="&lt;div style=&quot;font-size: 1px&quot;&gt;&lt;/div&gt;" style="verticalAlign=middle;align=center;overflow=width;vsdxID=29;fillColor=none;gradientColor=none;strokeColor=none;strokeWidth=2;spacingTop=-3;spacingBottom=-3;spacingLeft=-3;spacingRight=-3;points=[[0,0.75,0],[0,0.5,0],[0,0.25,0],[0.25,0,0],[0.5,0,0],[0.75,0,0],[1,0.25,0],[1,0.5,0],[1,0.75,0],[0.75,1,0],[0.5,1,0],[0.25,1,0]];labelBackgroundColor=none;rounded=0;html=1;whiteSpace=wrap;" parent="11" vertex="1">
          <mxGeometry x="173" y="18" width="16" height="16" as="geometry" />
        </mxCell>
        <mxCell id="17" value="&lt;div style=&quot;font-size: 1px&quot;&gt;&lt;/div&gt;" style="verticalAlign=middle;align=center;overflow=width;vsdxID=37;fillColor=none;gradientColor=none;strokeColor=none;spacingTop=-1;spacingBottom=-1;spacingLeft=-1;spacingRight=-1;points=[[0,0.75,0],[0,0.5,0],[0,0.25,0],[0.25,0,0],[0.5,0,0],[0.75,0,0],[1,0.25,0],[1,0.5,0],[1,0.75,0],[0.75,1,0],[0.5,1,0],[0.25,1,0]];labelBackgroundColor=none;rounded=0;html=1;whiteSpace=wrap;" parent="11" vertex="1">
          <mxGeometry x="5" y="5" width="14" height="14" as="geometry" />
        </mxCell>
        <mxCell id="19" value="&lt;div style=&quot;font-size: 1px&quot;&gt;&lt;font style=&quot;font-size:16.93px;font-family:Calibri;color:#0c0c0c;direction:ltr;letter-spacing:0px;line-height:120%;opacity:1&quot;&gt;Feb/2022&lt;br&gt;&lt;/font&gt;&lt;/div&gt;" style="text;vsdxID=24;fillColor=none;gradientColor=none;strokeColor=none;spacingTop=-1;spacingBottom=-1;spacingLeft=-1;spacingRight=-1;points=[[0,0.75,0],[0,0.5,0],[0,0.25,0],[0.25,0,0],[0.5,0,0],[0.75,0,0],[1,0.25,0],[1,0.5,0],[1,0.75,0],[0.75,1,0],[0.5,1,0],[0.25,1,0]];labelBackgroundColor=none;rounded=1;html=1;whiteSpace=wrap;verticalAlign=middle;align=center;;html=1;" parent="11" vertex="1">
          <mxGeometry y="18.95" width="345.72" as="geometry" />
        </mxCell>
        <UserObject label="" BpmnName="1" tags="Flowchart" id="20">
          <mxCell style="vsdxID=47;fillColor=none;gradientColor=none;strokeColor=none;spacingTop=-1;spacingBottom=-1;spacingLeft=-1;spacingRight=-1;points=[[0,0.75,0],[0,0.5,0],[0,0.25,0],[0.25,0,0],[0.5,0,0],[0.75,0,0],[1,0.25,0],[1,0.5,0],[1,0.75,0],[0.75,1,0],[0.5,1,0],[0.25,1,0]];labelBackgroundColor=none;rounded=1;html=1;whiteSpace=wrap;" parent="1" vertex="1">
            <mxGeometry x="710" y="847" width="345" height="38" as="geometry" />
          </mxCell>
        </UserObject>
        <mxCell id="21" style="vsdxID=48;fillColor=none;gradientColor=none;shape=stencil(nZCxDsIwDES/xitKk6V7KT/AF0TUEIuQVGmgwNeT9kCqOjB0s++efdKRaQZneyathpzilUfpsiOzJ60lOE6Sy0SmJdOcY+JLivfQYe9tIbWaFe5wU020VjadjvJmaPWu0jV0HN7iYwp8wlawXt8HCvsBqJewQH/mJvgPuhFcxZdhrgRlifdodOmvKywS6jftBw==);strokeColor=#000000;spacingTop=-1;spacingBottom=-1;spacingLeft=-1;spacingRight=-1;points=[[0,0.75,0],[0,0.5,0],[0,0.25,0],[0.25,0,0],[0.5,0,0],[0.75,0,0],[1,0.25,0],[1,0.5,0],[1,0.75,0],[0.75,1,0],[0.5,1,0],[0.25,1,0]];labelBackgroundColor=none;rounded=1;html=1;whiteSpace=wrap;" parent="20" vertex="1">
          <mxGeometry width="345" height="38" as="geometry" />
        </mxCell>
        <mxCell id="23" value="&lt;div style=&quot;font-size: 1px&quot;&gt;&lt;/div&gt;" style="verticalAlign=middle;align=center;overflow=width;vsdxID=52;fillColor=none;gradientColor=none;strokeColor=none;strokeWidth=2;spacingTop=-3;spacingBottom=-3;spacingLeft=-3;spacingRight=-3;points=[[0,0.75,0],[0,0.5,0],[0,0.25,0],[0.25,0,0],[0.5,0,0],[0.75,0,0],[1,0.25,0],[1,0.5,0],[1,0.75,0],[0.75,1,0],[0.5,1,0],[0.25,1,0]];labelBackgroundColor=none;rounded=0;html=1;whiteSpace=wrap;" parent="20" vertex="1">
          <mxGeometry x="173" y="18" width="16" height="16" as="geometry" />
        </mxCell>
        <mxCell id="26" value="&lt;div style=&quot;font-size: 1px&quot;&gt;&lt;/div&gt;" style="verticalAlign=middle;align=center;overflow=width;vsdxID=60;fillColor=none;gradientColor=none;strokeColor=none;spacingTop=-1;spacingBottom=-1;spacingLeft=-1;spacingRight=-1;points=[[0,0.75,0],[0,0.5,0],[0,0.25,0],[0.25,0,0],[0.5,0,0],[0.75,0,0],[1,0.25,0],[1,0.5,0],[1,0.75,0],[0.75,1,0],[0.5,1,0],[0.25,1,0]];labelBackgroundColor=none;rounded=0;html=1;whiteSpace=wrap;" parent="20" vertex="1">
          <mxGeometry x="5" y="5" width="14" height="14" as="geometry" />
        </mxCell>
        <mxCell id="28" value="&lt;div style=&quot;font-size: 1px&quot;&gt;&lt;font style=&quot;font-size:16.93px;font-family:Calibri;color:#0c0c0c;direction:ltr;letter-spacing:0px;line-height:120%;opacity:1&quot;&gt;1&lt;br/&gt;&lt;/font&gt;&lt;/div&gt;" style="text;vsdxID=47;fillColor=none;gradientColor=none;strokeColor=none;spacingTop=-1;spacingBottom=-1;spacingLeft=-1;spacingRight=-1;points=[[0,0.75,0],[0,0.5,0],[0,0.25,0],[0.25,0,0],[0.5,0,0],[0.75,0,0],[1,0.25,0],[1,0.5,0],[1,0.75,0],[0.75,1,0],[0.5,1,0],[0.25,1,0]];labelBackgroundColor=none;rounded=1;html=1;whiteSpace=wrap;verticalAlign=middle;align=center;;html=1;" parent="20" vertex="1">
          <mxGeometry y="18.95" width="345.72" as="geometry" />
        </mxCell>
        <UserObject label="" BpmnName="Versión:" tags="Flowchart" id="29">
          <mxCell style="vsdxID=70;fillColor=none;gradientColor=none;strokeColor=none;spacingTop=-1;spacingBottom=-1;spacingLeft=-1;spacingRight=-1;points=[[0,0.75,0],[0,0.5,0],[0,0.25,0],[0.25,0,0],[0.5,0,0],[0.75,0,0],[1,0.25,0],[1,0.5,0],[1,0.75,0],[0.75,1,0],[0.5,1,0],[0.25,1,0]];labelBackgroundColor=none;rounded=1;html=1;whiteSpace=wrap;" parent="1" vertex="1">
            <mxGeometry x="620" y="847" width="78" height="38" as="geometry" />
          </mxCell>
        </UserObject>
        <mxCell id="30" style="vsdxID=71;fillColor=#7f7f7f;gradientColor=none;shape=stencil(nZCxDsIwDES/xitKk6V7KT/AF0TUEIuQVGmgwNeT9kCqOjB0s++efdKRaQZneyathpzilUfpsiOzJ60lOE6Sy0SmJdOcY+JLivfQYe9tIbWaFe5wU020VjadjvJmaPWu0jV0HN7iYwp8wlawXt8HCvsBqJewQH/mJvgPuhFcxZdhrgRlifdodOmvKywS6jftBw==);strokeColor=#0c0c0c;spacingTop=-1;spacingBottom=-1;spacingLeft=-1;spacingRight=-1;points=[[0,0.75,0],[0,0.5,0],[0,0.25,0],[0.25,0,0],[0.5,0,0],[0.75,0,0],[1,0.25,0],[1,0.5,0],[1,0.75,0],[0.75,1,0],[0.5,1,0],[0.25,1,0]];labelBackgroundColor=none;rounded=1;html=1;whiteSpace=wrap;" parent="29" vertex="1">
          <mxGeometry width="78" height="38" as="geometry" />
        </mxCell>
        <mxCell id="32" value="&lt;div style=&quot;font-size: 1px&quot;&gt;&lt;/div&gt;" style="verticalAlign=middle;align=center;overflow=width;vsdxID=75;fillColor=none;gradientColor=none;strokeColor=none;strokeWidth=2;spacingTop=-3;spacingBottom=-3;spacingLeft=-3;spacingRight=-3;points=[[0,0.75,0],[0,0.5,0],[0,0.25,0],[0.25,0,0],[0.5,0,0],[0.75,0,0],[1,0.25,0],[1,0.5,0],[1,0.75,0],[0.75,1,0],[0.5,1,0],[0.25,1,0]];labelBackgroundColor=none;rounded=0;html=1;whiteSpace=wrap;" parent="29" vertex="1">
          <mxGeometry x="40" y="18" width="16" height="16" as="geometry" />
        </mxCell>
        <mxCell id="35" value="&lt;div style=&quot;font-size: 1px&quot;&gt;&lt;/div&gt;" style="verticalAlign=middle;align=center;overflow=width;vsdxID=83;fillColor=none;gradientColor=none;strokeColor=none;spacingTop=-1;spacingBottom=-1;spacingLeft=-1;spacingRight=-1;points=[[0,0.75,0],[0,0.5,0],[0,0.25,0],[0.25,0,0],[0.5,0,0],[0.75,0,0],[1,0.25,0],[1,0.5,0],[1,0.75,0],[0.75,1,0],[0.5,1,0],[0.25,1,0]];labelBackgroundColor=none;rounded=0;html=1;whiteSpace=wrap;" parent="29" vertex="1">
          <mxGeometry x="5" y="5" width="14" height="14" as="geometry" />
        </mxCell>
        <mxCell id="37" value="&lt;div style=&quot;font-size: 1px&quot;&gt;&lt;font style=&quot;font-size:16.93px;font-family:Calibri;color:#ffffff;direction:ltr;letter-spacing:0px;line-height:120%;opacity:1&quot;&gt;Versión:&lt;br/&gt;&lt;/font&gt;&lt;/div&gt;" style="text;vsdxID=70;fillColor=none;gradientColor=none;strokeColor=none;spacingTop=-1;spacingBottom=-1;spacingLeft=-1;spacingRight=-1;points=[[0,0.75,0],[0,0.5,0],[0,0.25,0],[0.25,0,0],[0.5,0,0],[0.75,0,0],[1,0.25,0],[1,0.5,0],[1,0.75,0],[0.75,1,0],[0.5,1,0],[0.25,1,0]];labelBackgroundColor=none;rounded=1;html=1;whiteSpace=wrap;verticalAlign=middle;align=center;;html=1;" parent="29" vertex="1">
          <mxGeometry y="18.95" width="78.67" as="geometry" />
        </mxCell>
        <UserObject label="" BpmnName="Fecha:" tags="Flowchart" id="38">
          <mxCell style="vsdxID=93;fillColor=none;gradientColor=none;strokeColor=none;spacingTop=-1;spacingBottom=-1;spacingLeft=-1;spacingRight=-1;points=[[0,0.75,0],[0,0.5,0],[0,0.25,0],[0.25,0,0],[0.5,0,0],[0.75,0,0],[1,0.25,0],[1,0.5,0],[1,0.75,0],[0.75,1,0],[0.5,1,0],[0.25,1,0]];labelBackgroundColor=none;rounded=1;html=1;whiteSpace=wrap;" parent="1" vertex="1">
            <mxGeometry x="620" y="799" width="78" height="38" as="geometry" />
          </mxCell>
        </UserObject>
        <mxCell id="39" style="vsdxID=94;fillColor=#7f7f7f;gradientColor=none;shape=stencil(nZCxDsIwDES/xitKk6V7KT/AF0TUEIuQVGmgwNeT9kCqOjB0s++efdKRaQZneyathpzilUfpsiOzJ60lOE6Sy0SmJdOcY+JLivfQYe9tIbWaFe5wU020VjadjvJmaPWu0jV0HN7iYwp8wlawXt8HCvsBqJewQH/mJvgPuhFcxZdhrgRlifdodOmvKywS6jftBw==);strokeColor=#0c0c0c;spacingTop=-1;spacingBottom=-1;spacingLeft=-1;spacingRight=-1;points=[[0,0.75,0],[0,0.5,0],[0,0.25,0],[0.25,0,0],[0.5,0,0],[0.75,0,0],[1,0.25,0],[1,0.5,0],[1,0.75,0],[0.75,1,0],[0.5,1,0],[0.25,1,0]];labelBackgroundColor=none;rounded=1;html=1;whiteSpace=wrap;" parent="38" vertex="1">
          <mxGeometry width="78" height="38" as="geometry" />
        </mxCell>
        <mxCell id="41" value="&lt;div style=&quot;font-size: 1px&quot;&gt;&lt;/div&gt;" style="verticalAlign=middle;align=center;overflow=width;vsdxID=98;fillColor=none;gradientColor=none;strokeColor=none;strokeWidth=2;spacingTop=-3;spacingBottom=-3;spacingLeft=-3;spacingRight=-3;points=[[0,0.75,0],[0,0.5,0],[0,0.25,0],[0.25,0,0],[0.5,0,0],[0.75,0,0],[1,0.25,0],[1,0.5,0],[1,0.75,0],[0.75,1,0],[0.5,1,0],[0.25,1,0]];labelBackgroundColor=none;rounded=0;html=1;whiteSpace=wrap;" parent="38" vertex="1">
          <mxGeometry x="40" y="18" width="16" height="16" as="geometry" />
        </mxCell>
        <mxCell id="44" value="&lt;div style=&quot;font-size: 1px&quot;&gt;&lt;/div&gt;" style="verticalAlign=middle;align=center;overflow=width;vsdxID=106;fillColor=none;gradientColor=none;strokeColor=none;spacingTop=-1;spacingBottom=-1;spacingLeft=-1;spacingRight=-1;points=[[0,0.75,0],[0,0.5,0],[0,0.25,0],[0.25,0,0],[0.5,0,0],[0.75,0,0],[1,0.25,0],[1,0.5,0],[1,0.75,0],[0.75,1,0],[0.5,1,0],[0.25,1,0]];labelBackgroundColor=none;rounded=0;html=1;whiteSpace=wrap;" parent="38" vertex="1">
          <mxGeometry x="5" y="5" width="14" height="14" as="geometry" />
        </mxCell>
        <mxCell id="46" value="&lt;div style=&quot;font-size: 1px&quot;&gt;&lt;font style=&quot;font-size:16.93px;font-family:Calibri;color:#ffffff;direction:ltr;letter-spacing:0px;line-height:120%;opacity:1&quot;&gt;Fecha:&lt;br/&gt;&lt;/font&gt;&lt;/div&gt;" style="text;vsdxID=93;fillColor=none;gradientColor=none;strokeColor=none;spacingTop=-1;spacingBottom=-1;spacingLeft=-1;spacingRight=-1;points=[[0,0.75,0],[0,0.5,0],[0,0.25,0],[0.25,0,0],[0.5,0,0],[0.75,0,0],[1,0.25,0],[1,0.5,0],[1,0.75,0],[0.75,1,0],[0.5,1,0],[0.25,1,0]];labelBackgroundColor=none;rounded=1;html=1;whiteSpace=wrap;verticalAlign=middle;align=center;;html=1;" parent="38" vertex="1">
          <mxGeometry y="18.95" width="78.67" as="geometry" />
        </mxCell>
        <UserObject label="" BpmnName="Autor:" tags="Flowchart" id="47">
          <mxCell style="vsdxID=116;fillColor=none;gradientColor=none;strokeColor=none;spacingTop=-1;spacingBottom=-1;spacingLeft=-1;spacingRight=-1;points=[[0,0.75,0],[0,0.5,0],[0,0.25,0],[0.25,0,0],[0.5,0,0],[0.75,0,0],[1,0.25,0],[1,0.5,0],[1,0.75,0],[0.75,1,0],[0.5,1,0],[0.25,1,0]];labelBackgroundColor=none;rounded=1;html=1;whiteSpace=wrap;" parent="1" vertex="1">
            <mxGeometry x="620" y="749" width="78" height="38" as="geometry" />
          </mxCell>
        </UserObject>
        <mxCell id="48" style="vsdxID=117;fillColor=#7f7f7f;gradientColor=none;shape=stencil(nZCxDsIwDES/xitKk6V7KT/AF0TUEIuQVGmgwNeT9kCqOjB0s++efdKRaQZneyathpzilUfpsiOzJ60lOE6Sy0SmJdOcY+JLivfQYe9tIbWaFe5wU020VjadjvJmaPWu0jV0HN7iYwp8wlawXt8HCvsBqJewQH/mJvgPuhFcxZdhrgRlifdodOmvKywS6jftBw==);strokeColor=#0c0c0c;spacingTop=-1;spacingBottom=-1;spacingLeft=-1;spacingRight=-1;points=[[0,0.75,0],[0,0.5,0],[0,0.25,0],[0.25,0,0],[0.5,0,0],[0.75,0,0],[1,0.25,0],[1,0.5,0],[1,0.75,0],[0.75,1,0],[0.5,1,0],[0.25,1,0]];labelBackgroundColor=none;rounded=1;html=1;whiteSpace=wrap;" parent="47" vertex="1">
          <mxGeometry width="78" height="38" as="geometry" />
        </mxCell>
        <mxCell id="50" value="&lt;div style=&quot;font-size: 1px&quot;&gt;&lt;/div&gt;" style="verticalAlign=middle;align=center;overflow=width;vsdxID=121;fillColor=none;gradientColor=none;strokeColor=none;strokeWidth=2;spacingTop=-3;spacingBottom=-3;spacingLeft=-3;spacingRight=-3;points=[[0,0.75,0],[0,0.5,0],[0,0.25,0],[0.25,0,0],[0.5,0,0],[0.75,0,0],[1,0.25,0],[1,0.5,0],[1,0.75,0],[0.75,1,0],[0.5,1,0],[0.25,1,0]];labelBackgroundColor=none;rounded=0;html=1;whiteSpace=wrap;" parent="47" vertex="1">
          <mxGeometry x="40" y="18" width="16" height="16" as="geometry" />
        </mxCell>
        <mxCell id="53" value="&lt;div style=&quot;font-size: 1px&quot;&gt;&lt;/div&gt;" style="verticalAlign=middle;align=center;overflow=width;vsdxID=129;fillColor=none;gradientColor=none;strokeColor=none;spacingTop=-1;spacingBottom=-1;spacingLeft=-1;spacingRight=-1;points=[[0,0.75,0],[0,0.5,0],[0,0.25,0],[0.25,0,0],[0.5,0,0],[0.75,0,0],[1,0.25,0],[1,0.5,0],[1,0.75,0],[0.75,1,0],[0.5,1,0],[0.25,1,0]];labelBackgroundColor=none;rounded=0;html=1;whiteSpace=wrap;" parent="47" vertex="1">
          <mxGeometry x="5" y="5" width="14" height="14" as="geometry" />
        </mxCell>
        <mxCell id="55" value="&lt;div style=&quot;font-size: 1px&quot;&gt;&lt;font style=&quot;font-size:16.93px;font-family:Calibri;color:#ffffff;direction:ltr;letter-spacing:0px;line-height:120%;opacity:1&quot;&gt;Autor:&lt;br/&gt;&lt;/font&gt;&lt;/div&gt;" style="text;vsdxID=116;fillColor=none;gradientColor=none;strokeColor=none;spacingTop=-1;spacingBottom=-1;spacingLeft=-1;spacingRight=-1;points=[[0,0.75,0],[0,0.5,0],[0,0.25,0],[0.25,0,0],[0.5,0,0],[0.75,0,0],[1,0.25,0],[1,0.5,0],[1,0.75,0],[0.75,1,0],[0.5,1,0],[0.25,1,0]];labelBackgroundColor=none;rounded=1;html=1;whiteSpace=wrap;verticalAlign=middle;align=center;;html=1;" parent="47" vertex="1">
          <mxGeometry y="18.95" width="78.67" as="geometry" />
        </mxCell>
        <UserObject label="" BpmnName="Flujo v 1.0.1" tags="Flowchart" id="56">
          <mxCell style="vsdxID=139;fillColor=none;gradientColor=none;strokeColor=none;spacingTop=-1;spacingBottom=-1;spacingLeft=-1;spacingRight=-1;points=[[0,0.75,0],[0,0.5,0],[0,0.25,0],[0.25,0,0],[0.5,0,0],[0.75,0,0],[1,0.25,0],[1,0.5,0],[1,0.75,0],[0.75,1,0],[0.5,1,0],[0.25,1,0]];labelBackgroundColor=none;rounded=1;html=1;whiteSpace=wrap;" parent="1" vertex="1">
            <mxGeometry x="43" y="166" width="345" height="38" as="geometry" />
          </mxCell>
        </UserObject>
        <mxCell id="57" style="vsdxID=140;fillColor=none;gradientColor=none;shape=stencil(nZCxDsIwDES/xitKk6V7KT/AF0TUEIuQVGmgwNeT9kCqOjB0s++efdKRaQZneyathpzilUfpsiOzJ60lOE6Sy0SmJdOcY+JLivfQYe9tIbWaFe5wU020VjadjvJmaPWu0jV0HN7iYwp8wlawXt8HCvsBqJewQH/mJvgPuhFcxZdhrgRlifdodOmvKywS6jftBw==);strokeColor=#ffffff;spacingTop=-1;spacingBottom=-1;spacingLeft=-1;spacingRight=-1;points=[[0,0.75,0],[0,0.5,0],[0,0.25,0],[0.25,0,0],[0.5,0,0],[0.75,0,0],[1,0.25,0],[1,0.5,0],[1,0.75,0],[0.75,1,0],[0.5,1,0],[0.25,1,0]];labelBackgroundColor=none;rounded=1;html=1;whiteSpace=wrap;" parent="56" vertex="1">
          <mxGeometry width="345" height="38" as="geometry" />
        </mxCell>
        <mxCell id="59" value="&lt;div style=&quot;font-size: 1px&quot;&gt;&lt;/div&gt;" style="verticalAlign=middle;align=center;overflow=width;vsdxID=144;fillColor=none;gradientColor=none;strokeColor=none;strokeWidth=2;spacingTop=-3;spacingBottom=-3;spacingLeft=-3;spacingRight=-3;points=[[0,0.75,0],[0,0.5,0],[0,0.25,0],[0.25,0,0],[0.5,0,0],[0.75,0,0],[1,0.25,0],[1,0.5,0],[1,0.75,0],[0.75,1,0],[0.5,1,0],[0.25,1,0]];labelBackgroundColor=none;rounded=0;html=1;whiteSpace=wrap;" parent="56" vertex="1">
          <mxGeometry x="173" y="18" width="16" height="16" as="geometry" />
        </mxCell>
        <mxCell id="62" value="&lt;div style=&quot;font-size: 1px&quot;&gt;&lt;/div&gt;" style="verticalAlign=middle;align=center;overflow=width;vsdxID=152;fillColor=none;gradientColor=none;strokeColor=none;spacingTop=-1;spacingBottom=-1;spacingLeft=-1;spacingRight=-1;points=[[0,0.75,0],[0,0.5,0],[0,0.25,0],[0.25,0,0],[0.5,0,0],[0.75,0,0],[1,0.25,0],[1,0.5,0],[1,0.75,0],[0.75,1,0],[0.5,1,0],[0.25,1,0]];labelBackgroundColor=none;rounded=0;html=1;whiteSpace=wrap;" parent="56" vertex="1">
          <mxGeometry x="5" y="5" width="14" height="14" as="geometry" />
        </mxCell>
        <mxCell id="64" value="&lt;div style=&quot;font-size: 1px&quot;&gt;&lt;p style=&quot;text-align:left;margin-left:0;margin-right:0;margin-top:0px;margin-bottom:0px;text-indent:0;vertical-align:middle;direction:ltr;&quot;&gt;&lt;font style=&quot;font-size:33.87px;font-family:Calibri;color:#0c0c0c;direction:ltr;letter-spacing:0px;line-height:120%;opacity:1&quot;&gt;Flujo v 1.0&lt;/font&gt;&lt;/p&gt;&lt;/div&gt;" style="text;vsdxID=139;fillColor=none;gradientColor=none;strokeColor=none;spacingTop=-1;spacingBottom=-1;spacingLeft=-1;spacingRight=-1;points=[[0,0.75,0],[0,0.5,0],[0,0.25,0],[0.25,0,0],[0.5,0,0],[0.75,0,0],[1,0.25,0],[1,0.5,0],[1,0.75,0],[0.75,1,0],[0.5,1,0],[0.25,1,0]];labelBackgroundColor=none;rounded=1;html=1;whiteSpace=wrap;verticalAlign=middle;align=left;;html=1;" parent="56" vertex="1">
          <mxGeometry y="18.95" width="345.37" as="geometry" />
        </mxCell>
        <UserObject label="" tags="Flowchart" id="65">
          <mxCell style="vsdxID=162;fillColor=none;gradientColor=none;strokeColor=none;spacingTop=-1;spacingBottom=-1;spacingLeft=-1;spacingRight=-1;points=[[0,0.75,0],[0,0.5,0],[0,0.25,0],[0.25,0,0],[0.5,0,0],[0.75,0,0],[1,0.25,0],[1,0.5,0],[1,0.75,0],[0.75,1,0],[0.5,1,0],[0.25,1,0]];labelBackgroundColor=none;rounded=1;html=1;whiteSpace=wrap;" parent="1" vertex="1">
            <mxGeometry x="43" y="238" width="985" height="114" as="geometry" />
          </mxCell>
        </UserObject>
        <mxCell id="66" style="vsdxID=163;fillColor=none;gradientColor=none;shape=stencil(nZCxDsIwDES/xitKk6V7KT/AF0TUEIuQVGmgwNeT9kCqOjB0s++efdKRaQZneyathpzilUfpsiOzJ60lOE6Sy0SmJdOcY+JLivfQYe9tIbWaFe5wU020VjadjvJmaPWu0jV0HN7iYwp8wlawXt8HCvsBqJewQH/mJvgPuhFcxZdhrgRlifdodOmvKywS6jftBw==);strokeColor=#ffffff;spacingTop=-1;spacingBottom=-1;spacingLeft=-1;spacingRight=-1;points=[[0,0.75,0],[0,0.5,0],[0,0.25,0],[0.25,0,0],[0.5,0,0],[0.75,0,0],[1,0.25,0],[1,0.5,0],[1,0.75,0],[0.75,1,0],[0.5,1,0],[0.25,1,0]];labelBackgroundColor=none;rounded=1;html=1;whiteSpace=wrap;" parent="65" vertex="1">
          <mxGeometry width="985" height="114" as="geometry" />
        </mxCell>
        <mxCell id="68" value="&lt;div style=&quot;font-size: 1px&quot;&gt;&lt;/div&gt;" style="verticalAlign=middle;align=center;overflow=width;vsdxID=167;fillColor=none;gradientColor=none;strokeColor=none;strokeWidth=2;spacingTop=-3;spacingBottom=-3;spacingLeft=-3;spacingRight=-3;points=[[0,0.75,0],[0,0.5,0],[0,0.25,0],[0.25,0,0],[0.5,0,0],[0.75,0,0],[1,0.25,0],[1,0.5,0],[1,0.75,0],[0.75,1,0],[0.5,1,0],[0.25,1,0]];labelBackgroundColor=none;rounded=0;html=1;whiteSpace=wrap;" parent="65" vertex="1">
          <mxGeometry x="493" y="94" width="16" height="16" as="geometry" />
        </mxCell>
        <mxCell id="71" value="&lt;div style=&quot;font-size: 1px&quot;&gt;&lt;/div&gt;" style="verticalAlign=middle;align=center;overflow=width;vsdxID=175;fillColor=none;gradientColor=none;strokeColor=none;spacingTop=-1;spacingBottom=-1;spacingLeft=-1;spacingRight=-1;points=[[0,0.75,0],[0,0.5,0],[0,0.25,0],[0.25,0,0],[0.5,0,0],[0.75,0,0],[1,0.25,0],[1,0.5,0],[1,0.75,0],[0.75,1,0],[0.5,1,0],[0.25,1,0]];labelBackgroundColor=none;rounded=0;html=1;whiteSpace=wrap;" parent="65" vertex="1">
          <mxGeometry x="5" y="5" width="14" height="14" as="geometry" />
        </mxCell>
        <mxCell id="73" value="&lt;div style=&quot;&quot;&gt;&lt;p style=&quot;text-align: left; margin: 0px; text-indent: 0px; vertical-align: middle; direction: ltr;&quot;&gt;&lt;font face=&quot;Franklin Gothic Book&quot; color=&quot;#0c0c0c&quot;&gt;&lt;span style=&quot;font-size: 19.76px;&quot;&gt;Solicitud de Vacaciones&lt;/span&gt;&lt;/font&gt;&lt;/p&gt;&lt;/div&gt;" style="text;vsdxID=162;fillColor=none;gradientColor=none;strokeColor=none;spacingTop=-1;spacingBottom=-1;spacingLeft=-1;spacingRight=-1;points=[[0,0.75,0],[0,0.5,0],[0,0.25,0],[0.25,0,0],[0.5,0,0],[0.75,0,0],[1,0.25,0],[1,0.5,0],[1,0.75,0],[0.75,1,0],[0.5,1,0],[0.25,1,0]];labelBackgroundColor=none;rounded=1;html=1;whiteSpace=wrap;verticalAlign=middle;align=left;;html=1;" parent="65" vertex="1">
          <mxGeometry y="56.85" width="985.48" as="geometry" />
        </mxCell>
        <UserObject label="&lt;div style=&quot;font-size: 1px&quot;&gt;&lt;p style=&quot;text-align:left;margin-left:0;margin-right:0;margin-top:0px;margin-bottom:0px;text-indent:0;vertical-align:middle;direction:ltr;&quot;&gt;&lt;font style=&quot;font-size:15.52px;font-family:Cronos Pro;color:#4f81bd;direction:ltr;letter-spacing:0px;line-height:120%;opacity:1&quot;&gt;LPRO&lt;br&gt;&#x9;&lt;/font&gt;&lt;font style=&quot;font-size:15.52px;font-family:Cronos Pro;color:#4f81bd;direction:ltr;letter-spacing:0px;line-height:120%;opacity:1&quot;&gt;Flujo &lt;/font&gt;&lt;font style=&quot;font-size:15.52px;font-family:Cronos Pro;color:#4f81bd;direction:ltr;letter-spacing:0px;line-height:120%;opacity:1&quot;&gt;v &lt;/font&gt;&lt;font style=&quot;font-size:15.52px;font-family:Cronos Pro;color:#4f81bd;direction:ltr;letter-spacing:0px;line-height:120%;opacity:1&quot;&gt;1.0&lt;/font&gt;&lt;/p&gt;&lt;p style=&quot;text-align:left;margin-left:0;margin-right:0;margin-top:0px;margin-bottom:0px;text-indent:0;vertical-align:middle;direction:ltr;&quot;&gt;&lt;font style=&quot;font-size:7.06px;font-family:Cronos Pro;color:#4f81bd;direction:ltr;letter-spacing:0px;line-height:120%;opacity:1&quot;&gt;&lt;br&gt;&lt;/font&gt;&lt;font style=&quot;font-size:12.7px;font-family:Cronos Pro;color:#000000;direction:ltr;letter-spacing:0px;line-height:120%;opacity:1&quot;&gt;&lt;br&gt;&lt;/font&gt;&lt;/p&gt;&lt;/div&gt;" tags="Fondo" id="74">
          <mxCell style="verticalAlign=middle;align=left;overflow=width;vsdxID=185;fillColor=none;gradientColor=none;shape=stencil(nZBLDoAgDERP0z3SIyjew0SURgSD+Lu9kMZoXLhwN9O+tukAlrNpJg1SzDH4QW/URgNYgZTkjA4UkwJUgGXng+6DX1zLfmoymdXo17xh5zmRJ6Q42BWCfc2oJfdAr+Yv+AP9Cb7OJ3H/2JG1HNGz/84klThPVCc=);strokeColor=#ffffff;strokeWidth=2;spacingTop=-1;spacingBottom=-1;spacingLeft=-1;spacingRight=-1;points=[];labelBackgroundColor=none;rounded=0;html=1;whiteSpace=wrap;" parent="1" vertex="1">
            <mxGeometry x="693" y="60" width="364" height="63" as="geometry" />
          </mxCell>
        </UserObject>
      </root>
    </mxGraphModel>
  </diagram>
  <diagram id="tY38lUPqZ8C55xfi6Ca6" name="AS-IS">
    <mxGraphModel dx="1434" dy="772" grid="1" gridSize="10" guides="1" tooltips="1" connect="1" arrows="1" fold="1" page="1" pageScale="1" pageWidth="850" pageHeight="1100" math="0" shadow="0">
      <root>
        <mxCell id="0" />
        <mxCell id="1" parent="0" />
        <mxCell id="NhI2pOyRwKVzvRlpXE7j-1" value="RH_FG_01_SOL-VAC_2201_01 - Solicitud de Vacaciones" style="swimlane;childLayout=stackLayout;resizeParent=1;resizeParentMax=0;startSize=20;html=1;fillColor=#002060;strokeColor=#000000;fontColor=#ffffff;strokeWidth=2;perimeterSpacing=6;" parent="1" vertex="1">
          <mxGeometry x="20" y="10" width="950" height="1450" as="geometry" />
        </mxCell>
        <mxCell id="NhI2pOyRwKVzvRlpXE7j-2" value="Colaborador" style="swimlane;startSize=20;html=1;fillColor=#FFC000;" parent="NhI2pOyRwKVzvRlpXE7j-1" vertex="1">
          <mxGeometry y="20" width="175" height="1430" as="geometry" />
        </mxCell>
        <mxCell id="NhI2pOyRwKVzvRlpXE7j-11" value="" style="edgeStyle=orthogonalEdgeStyle;rounded=0;orthogonalLoop=1;jettySize=auto;html=1;" parent="NhI2pOyRwKVzvRlpXE7j-2" source="2iIIKkvK4nBpQ2Dj_4Cv-9" target="NhI2pOyRwKVzvRlpXE7j-10" edge="1">
          <mxGeometry relative="1" as="geometry">
            <mxPoint x="75" y="90" as="sourcePoint" />
          </mxGeometry>
        </mxCell>
        <mxCell id="NhI2pOyRwKVzvRlpXE7j-10" value="1. Requerir formulario" style="whiteSpace=wrap;html=1;" parent="NhI2pOyRwKVzvRlpXE7j-2" vertex="1">
          <mxGeometry x="15" y="114" width="120" height="60" as="geometry" />
        </mxCell>
        <mxCell id="NhI2pOyRwKVzvRlpXE7j-26" value="" style="edgeStyle=orthogonalEdgeStyle;rounded=0;orthogonalLoop=1;jettySize=auto;html=1;" parent="NhI2pOyRwKVzvRlpXE7j-2" source="NhI2pOyRwKVzvRlpXE7j-23" target="NhI2pOyRwKVzvRlpXE7j-25" edge="1">
          <mxGeometry relative="1" as="geometry" />
        </mxCell>
        <mxCell id="NhI2pOyRwKVzvRlpXE7j-23" value="3. Llenar formulario" style="whiteSpace=wrap;html=1;" parent="NhI2pOyRwKVzvRlpXE7j-2" vertex="1">
          <mxGeometry x="15" y="214" width="120" height="60" as="geometry" />
        </mxCell>
        <mxCell id="NhI2pOyRwKVzvRlpXE7j-25" value="4 Entregar formulario para aprobación" style="whiteSpace=wrap;html=1;" parent="NhI2pOyRwKVzvRlpXE7j-2" vertex="1">
          <mxGeometry x="15" y="298" width="120" height="60" as="geometry" />
        </mxCell>
        <mxCell id="2iIIKkvK4nBpQ2Dj_4Cv-9" value="" style="points=[[0.145,0.145,0],[0.5,0,0],[0.855,0.145,0],[1,0.5,0],[0.855,0.855,0],[0.5,1,0],[0.145,0.855,0],[0,0.5,0]];shape=mxgraph.bpmn.event;html=1;verticalLabelPosition=bottom;labelBackgroundColor=#ffffff;verticalAlign=top;align=center;perimeter=ellipsePerimeter;outlineConnect=0;aspect=fixed;outline=standard;symbol=general;" parent="NhI2pOyRwKVzvRlpXE7j-2" vertex="1">
          <mxGeometry x="50" y="40" width="50" height="50" as="geometry" />
        </mxCell>
        <mxCell id="NhI2pOyRwKVzvRlpXE7j-3" value="Recursos Humanos" style="swimlane;startSize=20;html=1;fillColor=#FFC000;" parent="NhI2pOyRwKVzvRlpXE7j-1" vertex="1">
          <mxGeometry x="175" y="20" width="300" height="1430" as="geometry" />
        </mxCell>
        <mxCell id="NhI2pOyRwKVzvRlpXE7j-16" value="2.Entregar formulario" style="whiteSpace=wrap;html=1;" parent="NhI2pOyRwKVzvRlpXE7j-3" vertex="1">
          <mxGeometry x="25" y="114" width="120" height="60" as="geometry" />
        </mxCell>
        <mxCell id="NhI2pOyRwKVzvRlpXE7j-52" value="" style="edgeStyle=orthogonalEdgeStyle;rounded=0;orthogonalLoop=1;jettySize=auto;html=1;entryX=0.5;entryY=0;entryDx=0;entryDy=0;" parent="NhI2pOyRwKVzvRlpXE7j-3" source="NhI2pOyRwKVzvRlpXE7j-47" target="NhI2pOyRwKVzvRlpXE7j-51" edge="1">
          <mxGeometry relative="1" as="geometry">
            <mxPoint x="165.5" y="882" as="targetPoint" />
          </mxGeometry>
        </mxCell>
        <mxCell id="NhI2pOyRwKVzvRlpXE7j-47" value="11. Validar disponibilidad de días del solicitante" style="whiteSpace=wrap;html=1;" parent="NhI2pOyRwKVzvRlpXE7j-3" vertex="1">
          <mxGeometry x="105" y="750" width="120" height="60" as="geometry" />
        </mxCell>
        <mxCell id="NhI2pOyRwKVzvRlpXE7j-64" value="Si" style="edgeStyle=orthogonalEdgeStyle;rounded=0;orthogonalLoop=1;jettySize=auto;html=1;exitX=1;exitY=0.5;exitDx=0;exitDy=0;entryX=0.5;entryY=0;entryDx=0;entryDy=0;" parent="NhI2pOyRwKVzvRlpXE7j-3" source="NhI2pOyRwKVzvRlpXE7j-51" target="NhI2pOyRwKVzvRlpXE7j-65" edge="1">
          <mxGeometry relative="1" as="geometry">
            <mxPoint x="226" y="983" as="targetPoint" />
          </mxGeometry>
        </mxCell>
        <mxCell id="NhI2pOyRwKVzvRlpXE7j-51" value="12. ¿Aprobar?" style="rhombus;whiteSpace=wrap;html=1;" parent="NhI2pOyRwKVzvRlpXE7j-3" vertex="1">
          <mxGeometry x="125.5" y="853" width="80" height="80" as="geometry" />
        </mxCell>
        <mxCell id="NhI2pOyRwKVzvRlpXE7j-59" value="No" style="edgeStyle=orthogonalEdgeStyle;rounded=0;orthogonalLoop=1;jettySize=auto;html=1;exitX=0;exitY=0.5;exitDx=0;exitDy=0;" parent="NhI2pOyRwKVzvRlpXE7j-3" source="NhI2pOyRwKVzvRlpXE7j-51" target="NhI2pOyRwKVzvRlpXE7j-60" edge="1">
          <mxGeometry relative="1" as="geometry">
            <mxPoint x="115.5" y="918" as="sourcePoint" />
          </mxGeometry>
        </mxCell>
        <mxCell id="NhI2pOyRwKVzvRlpXE7j-60" value="13. Notificar rechazo de recursos humanos al solicitante" style="whiteSpace=wrap;html=1;" parent="NhI2pOyRwKVzvRlpXE7j-3" vertex="1">
          <mxGeometry x="23" y="983" width="120" height="60" as="geometry" />
        </mxCell>
        <mxCell id="NhI2pOyRwKVzvRlpXE7j-62" value="" style="edgeStyle=orthogonalEdgeStyle;rounded=0;orthogonalLoop=1;jettySize=auto;html=1;" parent="NhI2pOyRwKVzvRlpXE7j-3" source="2iIIKkvK4nBpQ2Dj_4Cv-3" edge="1">
          <mxGeometry relative="1" as="geometry">
            <mxPoint x="83" y="1083" as="targetPoint" />
          </mxGeometry>
        </mxCell>
        <mxCell id="NhI2pOyRwKVzvRlpXE7j-68" value="" style="edgeStyle=orthogonalEdgeStyle;rounded=0;orthogonalLoop=1;jettySize=auto;html=1;" parent="NhI2pOyRwKVzvRlpXE7j-3" source="NhI2pOyRwKVzvRlpXE7j-65" target="NhI2pOyRwKVzvRlpXE7j-67" edge="1">
          <mxGeometry relative="1" as="geometry" />
        </mxCell>
        <mxCell id="NhI2pOyRwKVzvRlpXE7j-65" value="14. Registrar vacaciones" style="whiteSpace=wrap;html=1;" parent="NhI2pOyRwKVzvRlpXE7j-3" vertex="1">
          <mxGeometry x="166" y="1078" width="120" height="60" as="geometry" />
        </mxCell>
        <mxCell id="NhI2pOyRwKVzvRlpXE7j-70" value="" style="edgeStyle=orthogonalEdgeStyle;rounded=0;orthogonalLoop=1;jettySize=auto;html=1;" parent="NhI2pOyRwKVzvRlpXE7j-3" source="NhI2pOyRwKVzvRlpXE7j-67" target="NhI2pOyRwKVzvRlpXE7j-69" edge="1">
          <mxGeometry relative="1" as="geometry" />
        </mxCell>
        <mxCell id="NhI2pOyRwKVzvRlpXE7j-67" value="15.Notificar a contabilidad del pago anticipado por vacaciones" style="whiteSpace=wrap;html=1;" parent="NhI2pOyRwKVzvRlpXE7j-3" vertex="1">
          <mxGeometry x="166" y="1178" width="120" height="60" as="geometry" />
        </mxCell>
        <mxCell id="NhI2pOyRwKVzvRlpXE7j-69" value="16. Notificar al solicitante de la aprobación de sus vacaciones" style="whiteSpace=wrap;html=1;" parent="NhI2pOyRwKVzvRlpXE7j-3" vertex="1">
          <mxGeometry x="166" y="1276" width="120" height="60" as="geometry" />
        </mxCell>
        <mxCell id="2iIIKkvK4nBpQ2Dj_4Cv-2" value="" style="edgeStyle=orthogonalEdgeStyle;rounded=0;orthogonalLoop=1;jettySize=auto;html=1;exitX=0.5;exitY=1;exitDx=0;exitDy=0;" parent="NhI2pOyRwKVzvRlpXE7j-3" source="NhI2pOyRwKVzvRlpXE7j-69" target="2iIIKkvK4nBpQ2Dj_4Cv-1" edge="1">
          <mxGeometry relative="1" as="geometry">
            <mxPoint x="421" y="1366" as="sourcePoint" />
            <mxPoint x="421" y="1401" as="targetPoint" />
          </mxGeometry>
        </mxCell>
        <mxCell id="2iIIKkvK4nBpQ2Dj_4Cv-1" value="" style="points=[[0.145,0.145,0],[0.5,0,0],[0.855,0.145,0],[1,0.5,0],[0.855,0.855,0],[0.5,1,0],[0.145,0.855,0],[0,0.5,0]];shape=mxgraph.bpmn.event;html=1;verticalLabelPosition=bottom;labelBackgroundColor=#ffffff;verticalAlign=top;align=center;perimeter=ellipsePerimeter;outlineConnect=0;aspect=fixed;outline=throwing;symbol=general;" parent="NhI2pOyRwKVzvRlpXE7j-3" vertex="1">
          <mxGeometry x="201.5" y="1370" width="50" height="50" as="geometry" />
        </mxCell>
        <mxCell id="2iIIKkvK4nBpQ2Dj_4Cv-4" value="" style="edgeStyle=orthogonalEdgeStyle;rounded=0;orthogonalLoop=1;jettySize=auto;html=1;" parent="NhI2pOyRwKVzvRlpXE7j-3" source="NhI2pOyRwKVzvRlpXE7j-60" target="2iIIKkvK4nBpQ2Dj_4Cv-3" edge="1">
          <mxGeometry relative="1" as="geometry">
            <mxPoint x="278" y="1073" as="sourcePoint" />
            <mxPoint x="278" y="1113" as="targetPoint" />
          </mxGeometry>
        </mxCell>
        <mxCell id="2iIIKkvK4nBpQ2Dj_4Cv-3" value="" style="points=[[0.145,0.145,0],[0.5,0,0],[0.855,0.145,0],[1,0.5,0],[0.855,0.855,0],[0.5,1,0],[0.145,0.855,0],[0,0.5,0]];shape=mxgraph.bpmn.event;html=1;verticalLabelPosition=bottom;labelBackgroundColor=#ffffff;verticalAlign=top;align=center;perimeter=ellipsePerimeter;outlineConnect=0;aspect=fixed;outline=end;symbol=terminate;" parent="NhI2pOyRwKVzvRlpXE7j-3" vertex="1">
          <mxGeometry x="58" y="1074" width="50" height="50" as="geometry" />
        </mxCell>
        <mxCell id="NhI2pOyRwKVzvRlpXE7j-4" value="Jefe Inmediato" style="swimlane;startSize=20;html=1;fillColor=#FFC000;" parent="NhI2pOyRwKVzvRlpXE7j-1" vertex="1">
          <mxGeometry x="475" y="20" width="300" height="1430" as="geometry" />
        </mxCell>
        <mxCell id="NhI2pOyRwKVzvRlpXE7j-30" value="" style="edgeStyle=orthogonalEdgeStyle;rounded=0;orthogonalLoop=1;jettySize=auto;html=1;" parent="NhI2pOyRwKVzvRlpXE7j-4" source="NhI2pOyRwKVzvRlpXE7j-27" target="NhI2pOyRwKVzvRlpXE7j-29" edge="1">
          <mxGeometry relative="1" as="geometry" />
        </mxCell>
        <mxCell id="NhI2pOyRwKVzvRlpXE7j-27" value="5. Validar disponibilidad de recursos" style="whiteSpace=wrap;html=1;" parent="NhI2pOyRwKVzvRlpXE7j-4" vertex="1">
          <mxGeometry x="100" y="298" width="120" height="60" as="geometry" />
        </mxCell>
        <mxCell id="NhI2pOyRwKVzvRlpXE7j-41" value="Si" style="edgeStyle=orthogonalEdgeStyle;rounded=0;orthogonalLoop=1;jettySize=auto;html=1;exitX=1;exitY=0.5;exitDx=0;exitDy=0;" parent="NhI2pOyRwKVzvRlpXE7j-4" source="NhI2pOyRwKVzvRlpXE7j-29" target="NhI2pOyRwKVzvRlpXE7j-40" edge="1">
          <mxGeometry relative="1" as="geometry" />
        </mxCell>
        <mxCell id="NhI2pOyRwKVzvRlpXE7j-42" value="No" style="edgeStyle=orthogonalEdgeStyle;rounded=0;orthogonalLoop=1;jettySize=auto;html=1;exitX=0;exitY=0.5;exitDx=0;exitDy=0;" parent="NhI2pOyRwKVzvRlpXE7j-4" source="NhI2pOyRwKVzvRlpXE7j-29" target="NhI2pOyRwKVzvRlpXE7j-31" edge="1">
          <mxGeometry relative="1" as="geometry" />
        </mxCell>
        <mxCell id="NhI2pOyRwKVzvRlpXE7j-29" value="6. ¿Aprobar?" style="rhombus;whiteSpace=wrap;html=1;" parent="NhI2pOyRwKVzvRlpXE7j-4" vertex="1">
          <mxGeometry x="120" y="409" width="80" height="80" as="geometry" />
        </mxCell>
        <mxCell id="2iIIKkvK4nBpQ2Dj_4Cv-7" style="edgeStyle=orthogonalEdgeStyle;rounded=0;orthogonalLoop=1;jettySize=auto;html=1;exitX=0.5;exitY=1;exitDx=0;exitDy=0;" parent="NhI2pOyRwKVzvRlpXE7j-4" source="NhI2pOyRwKVzvRlpXE7j-31" target="2iIIKkvK4nBpQ2Dj_4Cv-5" edge="1">
          <mxGeometry relative="1" as="geometry" />
        </mxCell>
        <mxCell id="NhI2pOyRwKVzvRlpXE7j-31" value="7. Notificar rechazo al solicitante" style="whiteSpace=wrap;html=1;" parent="NhI2pOyRwKVzvRlpXE7j-4" vertex="1">
          <mxGeometry x="27.5" y="514" width="120" height="60" as="geometry" />
        </mxCell>
        <mxCell id="NhI2pOyRwKVzvRlpXE7j-40" value="8. Asignar recurso para cubrir vacaciones" style="whiteSpace=wrap;html=1;" parent="NhI2pOyRwKVzvRlpXE7j-4" vertex="1">
          <mxGeometry x="160" y="514" width="120" height="60" as="geometry" />
        </mxCell>
        <mxCell id="NhI2pOyRwKVzvRlpXE7j-45" value="10. Enviar formulario para aprobación de recursos humanos" style="whiteSpace=wrap;html=1;" parent="NhI2pOyRwKVzvRlpXE7j-4" vertex="1">
          <mxGeometry x="160" y="700" width="120" height="60" as="geometry" />
        </mxCell>
        <mxCell id="NhI2pOyRwKVzvRlpXE7j-43" value="9.Notificar al recurso designado" style="whiteSpace=wrap;html=1;" parent="NhI2pOyRwKVzvRlpXE7j-4" vertex="1">
          <mxGeometry x="160" y="604" width="120" height="60" as="geometry" />
        </mxCell>
        <mxCell id="NhI2pOyRwKVzvRlpXE7j-44" value="" style="edgeStyle=orthogonalEdgeStyle;rounded=0;orthogonalLoop=1;jettySize=auto;html=1;" parent="NhI2pOyRwKVzvRlpXE7j-4" source="NhI2pOyRwKVzvRlpXE7j-40" target="NhI2pOyRwKVzvRlpXE7j-43" edge="1">
          <mxGeometry relative="1" as="geometry" />
        </mxCell>
        <mxCell id="NhI2pOyRwKVzvRlpXE7j-46" value="" style="edgeStyle=orthogonalEdgeStyle;rounded=0;orthogonalLoop=1;jettySize=auto;html=1;exitX=0.5;exitY=1;exitDx=0;exitDy=0;" parent="NhI2pOyRwKVzvRlpXE7j-4" source="NhI2pOyRwKVzvRlpXE7j-43" target="NhI2pOyRwKVzvRlpXE7j-45" edge="1">
          <mxGeometry relative="1" as="geometry" />
        </mxCell>
        <mxCell id="2iIIKkvK4nBpQ2Dj_4Cv-5" value="" style="points=[[0.145,0.145,0],[0.5,0,0],[0.855,0.145,0],[1,0.5,0],[0.855,0.855,0],[0.5,1,0],[0.145,0.855,0],[0,0.5,0]];shape=mxgraph.bpmn.event;html=1;verticalLabelPosition=bottom;labelBackgroundColor=#ffffff;verticalAlign=top;align=center;perimeter=ellipsePerimeter;outlineConnect=0;aspect=fixed;outline=end;symbol=terminate;" parent="NhI2pOyRwKVzvRlpXE7j-4" vertex="1">
          <mxGeometry x="62.5" y="609" width="50" height="50" as="geometry" />
        </mxCell>
        <mxCell id="NhI2pOyRwKVzvRlpXE7j-17" value="" style="edgeStyle=orthogonalEdgeStyle;rounded=0;orthogonalLoop=1;jettySize=auto;html=1;" parent="NhI2pOyRwKVzvRlpXE7j-1" source="NhI2pOyRwKVzvRlpXE7j-10" target="NhI2pOyRwKVzvRlpXE7j-16" edge="1">
          <mxGeometry relative="1" as="geometry" />
        </mxCell>
        <mxCell id="NhI2pOyRwKVzvRlpXE7j-24" value="" style="edgeStyle=orthogonalEdgeStyle;rounded=0;orthogonalLoop=1;jettySize=auto;html=1;entryX=0.5;entryY=0;entryDx=0;entryDy=0;exitX=0.5;exitY=1;exitDx=0;exitDy=0;" parent="NhI2pOyRwKVzvRlpXE7j-1" source="NhI2pOyRwKVzvRlpXE7j-16" target="NhI2pOyRwKVzvRlpXE7j-23" edge="1">
          <mxGeometry relative="1" as="geometry" />
        </mxCell>
        <mxCell id="NhI2pOyRwKVzvRlpXE7j-28" value="" style="edgeStyle=orthogonalEdgeStyle;rounded=0;orthogonalLoop=1;jettySize=auto;html=1;" parent="NhI2pOyRwKVzvRlpXE7j-1" source="NhI2pOyRwKVzvRlpXE7j-25" target="NhI2pOyRwKVzvRlpXE7j-27" edge="1">
          <mxGeometry relative="1" as="geometry" />
        </mxCell>
        <mxCell id="NhI2pOyRwKVzvRlpXE7j-48" value="" style="edgeStyle=orthogonalEdgeStyle;rounded=0;orthogonalLoop=1;jettySize=auto;html=1;exitX=0.5;exitY=1;exitDx=0;exitDy=0;" parent="NhI2pOyRwKVzvRlpXE7j-1" source="NhI2pOyRwKVzvRlpXE7j-45" target="NhI2pOyRwKVzvRlpXE7j-47" edge="1">
          <mxGeometry relative="1" as="geometry" />
        </mxCell>
        <mxCell id="NhI2pOyRwKVzvRlpXE7j-6" value="Contabilidad" style="swimlane;startSize=20;html=1;fillColor=#FFC000;" parent="NhI2pOyRwKVzvRlpXE7j-1" vertex="1">
          <mxGeometry x="775" y="20" width="175" height="1430" as="geometry" />
        </mxCell>
        <mxCell id="NhI2pOyRwKVzvRlpXE7j-75" value="Proceso de pago de vacaciones - CN_PR_17" style="shape=offPageConnector;whiteSpace=wrap;html=1;fillColor=#f5f5f5;strokeColor=#666666;fontColor=#333333;" parent="NhI2pOyRwKVzvRlpXE7j-6" vertex="1">
          <mxGeometry x="47.5" y="1266" width="80" height="80" as="geometry" />
        </mxCell>
        <mxCell id="NhI2pOyRwKVzvRlpXE7j-76" style="edgeStyle=orthogonalEdgeStyle;rounded=0;orthogonalLoop=1;jettySize=auto;html=1;exitX=1;exitY=0.5;exitDx=0;exitDy=0;" parent="NhI2pOyRwKVzvRlpXE7j-1" source="NhI2pOyRwKVzvRlpXE7j-67" target="NhI2pOyRwKVzvRlpXE7j-75" edge="1">
          <mxGeometry relative="1" as="geometry" />
        </mxCell>
      </root>
    </mxGraphModel>
  </diagram>
  <diagram name="TO-BE" id="mlaHsrEKsq92Ns0Moqqn">
    <mxGraphModel dx="1434" dy="772" grid="1" gridSize="10" guides="1" tooltips="1" connect="1" arrows="1" fold="1" page="1" pageScale="1" pageWidth="850" pageHeight="1100" math="0" shadow="0">
      <root>
        <mxCell id="uLtNfe8V0-7aoF6_B4Mz-0" />
        <mxCell id="uLtNfe8V0-7aoF6_B4Mz-1" parent="uLtNfe8V0-7aoF6_B4Mz-0" />
        <mxCell id="uLtNfe8V0-7aoF6_B4Mz-2" value="RH_FG_01_SOL-VAC_2201_01 - Solicitud de Vacaciones" style="swimlane;childLayout=stackLayout;resizeParent=1;resizeParentMax=0;startSize=20;html=1;fillColor=#002060;strokeColor=#000000;fontColor=#ffffff;strokeWidth=2;perimeterSpacing=6;" vertex="1" parent="uLtNfe8V0-7aoF6_B4Mz-1">
          <mxGeometry x="20" y="10" width="950" height="1450" as="geometry" />
        </mxCell>
        <mxCell id="uLtNfe8V0-7aoF6_B4Mz-3" value="Colaborador" style="swimlane;startSize=20;html=1;fillColor=#FFC000;" vertex="1" parent="uLtNfe8V0-7aoF6_B4Mz-2">
          <mxGeometry y="20" width="175" height="1430" as="geometry" />
        </mxCell>
        <mxCell id="uLtNfe8V0-7aoF6_B4Mz-4" value="" style="edgeStyle=orthogonalEdgeStyle;rounded=0;orthogonalLoop=1;jettySize=auto;html=1;" edge="1" parent="uLtNfe8V0-7aoF6_B4Mz-3" source="uLtNfe8V0-7aoF6_B4Mz-9" target="uLtNfe8V0-7aoF6_B4Mz-5">
          <mxGeometry relative="1" as="geometry">
            <mxPoint x="75" y="90" as="sourcePoint" />
          </mxGeometry>
        </mxCell>
        <mxCell id="uLtNfe8V0-7aoF6_B4Mz-5" value="1. Requerir formulario" style="whiteSpace=wrap;html=1;" vertex="1" parent="uLtNfe8V0-7aoF6_B4Mz-3">
          <mxGeometry x="15" y="114" width="120" height="60" as="geometry" />
        </mxCell>
        <mxCell id="uLtNfe8V0-7aoF6_B4Mz-6" value="" style="edgeStyle=orthogonalEdgeStyle;rounded=0;orthogonalLoop=1;jettySize=auto;html=1;" edge="1" parent="uLtNfe8V0-7aoF6_B4Mz-3" source="uLtNfe8V0-7aoF6_B4Mz-7" target="uLtNfe8V0-7aoF6_B4Mz-8">
          <mxGeometry relative="1" as="geometry" />
        </mxCell>
        <mxCell id="uLtNfe8V0-7aoF6_B4Mz-7" value="3. Llenar formulario" style="whiteSpace=wrap;html=1;" vertex="1" parent="uLtNfe8V0-7aoF6_B4Mz-3">
          <mxGeometry x="15" y="214" width="120" height="60" as="geometry" />
        </mxCell>
        <mxCell id="uLtNfe8V0-7aoF6_B4Mz-8" value="4 Entregar formulario para aprobación" style="whiteSpace=wrap;html=1;" vertex="1" parent="uLtNfe8V0-7aoF6_B4Mz-3">
          <mxGeometry x="15" y="298" width="120" height="60" as="geometry" />
        </mxCell>
        <mxCell id="uLtNfe8V0-7aoF6_B4Mz-9" value="" style="points=[[0.145,0.145,0],[0.5,0,0],[0.855,0.145,0],[1,0.5,0],[0.855,0.855,0],[0.5,1,0],[0.145,0.855,0],[0,0.5,0]];shape=mxgraph.bpmn.event;html=1;verticalLabelPosition=bottom;labelBackgroundColor=#ffffff;verticalAlign=top;align=center;perimeter=ellipsePerimeter;outlineConnect=0;aspect=fixed;outline=standard;symbol=general;" vertex="1" parent="uLtNfe8V0-7aoF6_B4Mz-3">
          <mxGeometry x="50" y="40" width="50" height="50" as="geometry" />
        </mxCell>
        <mxCell id="uLtNfe8V0-7aoF6_B4Mz-10" value="Recursos Humanos" style="swimlane;startSize=20;html=1;fillColor=#FFC000;" vertex="1" parent="uLtNfe8V0-7aoF6_B4Mz-2">
          <mxGeometry x="175" y="20" width="300" height="1430" as="geometry" />
        </mxCell>
        <mxCell id="uLtNfe8V0-7aoF6_B4Mz-11" value="2.Entregar formulario" style="whiteSpace=wrap;html=1;" vertex="1" parent="uLtNfe8V0-7aoF6_B4Mz-10">
          <mxGeometry x="25" y="114" width="120" height="60" as="geometry" />
        </mxCell>
        <mxCell id="uLtNfe8V0-7aoF6_B4Mz-12" value="" style="edgeStyle=orthogonalEdgeStyle;rounded=0;orthogonalLoop=1;jettySize=auto;html=1;entryX=0.5;entryY=0;entryDx=0;entryDy=0;" edge="1" parent="uLtNfe8V0-7aoF6_B4Mz-10" source="uLtNfe8V0-7aoF6_B4Mz-13" target="uLtNfe8V0-7aoF6_B4Mz-15">
          <mxGeometry relative="1" as="geometry">
            <mxPoint x="165.5" y="882" as="targetPoint" />
          </mxGeometry>
        </mxCell>
        <mxCell id="uLtNfe8V0-7aoF6_B4Mz-13" value="11. Validar disponibilidad de días del solicitante" style="whiteSpace=wrap;html=1;" vertex="1" parent="uLtNfe8V0-7aoF6_B4Mz-10">
          <mxGeometry x="105" y="750" width="120" height="60" as="geometry" />
        </mxCell>
        <mxCell id="uLtNfe8V0-7aoF6_B4Mz-14" value="Si" style="edgeStyle=orthogonalEdgeStyle;rounded=0;orthogonalLoop=1;jettySize=auto;html=1;exitX=1;exitY=0.5;exitDx=0;exitDy=0;entryX=0.5;entryY=0;entryDx=0;entryDy=0;" edge="1" parent="uLtNfe8V0-7aoF6_B4Mz-10" source="uLtNfe8V0-7aoF6_B4Mz-15" target="uLtNfe8V0-7aoF6_B4Mz-20">
          <mxGeometry relative="1" as="geometry">
            <mxPoint x="226" y="983" as="targetPoint" />
          </mxGeometry>
        </mxCell>
        <mxCell id="uLtNfe8V0-7aoF6_B4Mz-15" value="12. ¿Aprobar?" style="rhombus;whiteSpace=wrap;html=1;" vertex="1" parent="uLtNfe8V0-7aoF6_B4Mz-10">
          <mxGeometry x="125.5" y="853" width="80" height="80" as="geometry" />
        </mxCell>
        <mxCell id="uLtNfe8V0-7aoF6_B4Mz-16" value="No" style="edgeStyle=orthogonalEdgeStyle;rounded=0;orthogonalLoop=1;jettySize=auto;html=1;exitX=0;exitY=0.5;exitDx=0;exitDy=0;" edge="1" parent="uLtNfe8V0-7aoF6_B4Mz-10" source="uLtNfe8V0-7aoF6_B4Mz-15" target="uLtNfe8V0-7aoF6_B4Mz-17">
          <mxGeometry relative="1" as="geometry">
            <mxPoint x="115.5" y="918" as="sourcePoint" />
          </mxGeometry>
        </mxCell>
        <mxCell id="uLtNfe8V0-7aoF6_B4Mz-17" value="13. Notificar rechazo de recursos humanos al solicitante" style="whiteSpace=wrap;html=1;" vertex="1" parent="uLtNfe8V0-7aoF6_B4Mz-10">
          <mxGeometry x="23" y="983" width="120" height="60" as="geometry" />
        </mxCell>
        <mxCell id="uLtNfe8V0-7aoF6_B4Mz-18" value="" style="edgeStyle=orthogonalEdgeStyle;rounded=0;orthogonalLoop=1;jettySize=auto;html=1;" edge="1" parent="uLtNfe8V0-7aoF6_B4Mz-10" source="uLtNfe8V0-7aoF6_B4Mz-27">
          <mxGeometry relative="1" as="geometry">
            <mxPoint x="83" y="1083" as="targetPoint" />
          </mxGeometry>
        </mxCell>
        <mxCell id="uLtNfe8V0-7aoF6_B4Mz-19" value="" style="edgeStyle=orthogonalEdgeStyle;rounded=0;orthogonalLoop=1;jettySize=auto;html=1;" edge="1" parent="uLtNfe8V0-7aoF6_B4Mz-10" source="uLtNfe8V0-7aoF6_B4Mz-20" target="uLtNfe8V0-7aoF6_B4Mz-22">
          <mxGeometry relative="1" as="geometry" />
        </mxCell>
        <mxCell id="uLtNfe8V0-7aoF6_B4Mz-20" value="14. Registrar vacaciones" style="whiteSpace=wrap;html=1;" vertex="1" parent="uLtNfe8V0-7aoF6_B4Mz-10">
          <mxGeometry x="166" y="1078" width="120" height="60" as="geometry" />
        </mxCell>
        <mxCell id="uLtNfe8V0-7aoF6_B4Mz-21" value="" style="edgeStyle=orthogonalEdgeStyle;rounded=0;orthogonalLoop=1;jettySize=auto;html=1;" edge="1" parent="uLtNfe8V0-7aoF6_B4Mz-10" source="uLtNfe8V0-7aoF6_B4Mz-22" target="uLtNfe8V0-7aoF6_B4Mz-23">
          <mxGeometry relative="1" as="geometry" />
        </mxCell>
        <mxCell id="uLtNfe8V0-7aoF6_B4Mz-22" value="15.Notificar a contabilidad del pago anticipado por vacaciones" style="whiteSpace=wrap;html=1;" vertex="1" parent="uLtNfe8V0-7aoF6_B4Mz-10">
          <mxGeometry x="166" y="1178" width="120" height="60" as="geometry" />
        </mxCell>
        <mxCell id="uLtNfe8V0-7aoF6_B4Mz-23" value="16. Notificar al solicitante de la aprobación de sus vacaciones" style="whiteSpace=wrap;html=1;" vertex="1" parent="uLtNfe8V0-7aoF6_B4Mz-10">
          <mxGeometry x="166" y="1276" width="120" height="60" as="geometry" />
        </mxCell>
        <mxCell id="uLtNfe8V0-7aoF6_B4Mz-24" value="" style="edgeStyle=orthogonalEdgeStyle;rounded=0;orthogonalLoop=1;jettySize=auto;html=1;exitX=0.5;exitY=1;exitDx=0;exitDy=0;" edge="1" parent="uLtNfe8V0-7aoF6_B4Mz-10" source="uLtNfe8V0-7aoF6_B4Mz-23" target="uLtNfe8V0-7aoF6_B4Mz-25">
          <mxGeometry relative="1" as="geometry">
            <mxPoint x="421" y="1366" as="sourcePoint" />
            <mxPoint x="421" y="1401" as="targetPoint" />
          </mxGeometry>
        </mxCell>
        <mxCell id="uLtNfe8V0-7aoF6_B4Mz-25" value="" style="points=[[0.145,0.145,0],[0.5,0,0],[0.855,0.145,0],[1,0.5,0],[0.855,0.855,0],[0.5,1,0],[0.145,0.855,0],[0,0.5,0]];shape=mxgraph.bpmn.event;html=1;verticalLabelPosition=bottom;labelBackgroundColor=#ffffff;verticalAlign=top;align=center;perimeter=ellipsePerimeter;outlineConnect=0;aspect=fixed;outline=throwing;symbol=general;" vertex="1" parent="uLtNfe8V0-7aoF6_B4Mz-10">
          <mxGeometry x="201.5" y="1370" width="50" height="50" as="geometry" />
        </mxCell>
        <mxCell id="uLtNfe8V0-7aoF6_B4Mz-26" value="" style="edgeStyle=orthogonalEdgeStyle;rounded=0;orthogonalLoop=1;jettySize=auto;html=1;" edge="1" parent="uLtNfe8V0-7aoF6_B4Mz-10" source="uLtNfe8V0-7aoF6_B4Mz-17" target="uLtNfe8V0-7aoF6_B4Mz-27">
          <mxGeometry relative="1" as="geometry">
            <mxPoint x="278" y="1073" as="sourcePoint" />
            <mxPoint x="278" y="1113" as="targetPoint" />
          </mxGeometry>
        </mxCell>
        <mxCell id="uLtNfe8V0-7aoF6_B4Mz-27" value="" style="points=[[0.145,0.145,0],[0.5,0,0],[0.855,0.145,0],[1,0.5,0],[0.855,0.855,0],[0.5,1,0],[0.145,0.855,0],[0,0.5,0]];shape=mxgraph.bpmn.event;html=1;verticalLabelPosition=bottom;labelBackgroundColor=#ffffff;verticalAlign=top;align=center;perimeter=ellipsePerimeter;outlineConnect=0;aspect=fixed;outline=end;symbol=terminate;" vertex="1" parent="uLtNfe8V0-7aoF6_B4Mz-10">
          <mxGeometry x="58" y="1074" width="50" height="50" as="geometry" />
        </mxCell>
        <mxCell id="uLtNfe8V0-7aoF6_B4Mz-28" value="Jefe Inmediato" style="swimlane;startSize=20;html=1;fillColor=#FFC000;" vertex="1" parent="uLtNfe8V0-7aoF6_B4Mz-2">
          <mxGeometry x="475" y="20" width="300" height="1430" as="geometry" />
        </mxCell>
        <mxCell id="uLtNfe8V0-7aoF6_B4Mz-29" value="" style="edgeStyle=orthogonalEdgeStyle;rounded=0;orthogonalLoop=1;jettySize=auto;html=1;" edge="1" parent="uLtNfe8V0-7aoF6_B4Mz-28" source="uLtNfe8V0-7aoF6_B4Mz-30" target="uLtNfe8V0-7aoF6_B4Mz-33">
          <mxGeometry relative="1" as="geometry" />
        </mxCell>
        <mxCell id="uLtNfe8V0-7aoF6_B4Mz-30" value="5. Validar disponibilidad de recursos" style="whiteSpace=wrap;html=1;" vertex="1" parent="uLtNfe8V0-7aoF6_B4Mz-28">
          <mxGeometry x="100" y="298" width="120" height="60" as="geometry" />
        </mxCell>
        <mxCell id="uLtNfe8V0-7aoF6_B4Mz-31" value="Si" style="edgeStyle=orthogonalEdgeStyle;rounded=0;orthogonalLoop=1;jettySize=auto;html=1;exitX=1;exitY=0.5;exitDx=0;exitDy=0;" edge="1" parent="uLtNfe8V0-7aoF6_B4Mz-28" source="uLtNfe8V0-7aoF6_B4Mz-33" target="uLtNfe8V0-7aoF6_B4Mz-36">
          <mxGeometry relative="1" as="geometry" />
        </mxCell>
        <mxCell id="uLtNfe8V0-7aoF6_B4Mz-32" value="No" style="edgeStyle=orthogonalEdgeStyle;rounded=0;orthogonalLoop=1;jettySize=auto;html=1;exitX=0;exitY=0.5;exitDx=0;exitDy=0;" edge="1" parent="uLtNfe8V0-7aoF6_B4Mz-28" source="uLtNfe8V0-7aoF6_B4Mz-33" target="uLtNfe8V0-7aoF6_B4Mz-35">
          <mxGeometry relative="1" as="geometry" />
        </mxCell>
        <mxCell id="uLtNfe8V0-7aoF6_B4Mz-33" value="6. ¿Aprobar?" style="rhombus;whiteSpace=wrap;html=1;" vertex="1" parent="uLtNfe8V0-7aoF6_B4Mz-28">
          <mxGeometry x="120" y="409" width="80" height="80" as="geometry" />
        </mxCell>
        <mxCell id="uLtNfe8V0-7aoF6_B4Mz-34" style="edgeStyle=orthogonalEdgeStyle;rounded=0;orthogonalLoop=1;jettySize=auto;html=1;exitX=0.5;exitY=1;exitDx=0;exitDy=0;" edge="1" parent="uLtNfe8V0-7aoF6_B4Mz-28" source="uLtNfe8V0-7aoF6_B4Mz-35" target="uLtNfe8V0-7aoF6_B4Mz-41">
          <mxGeometry relative="1" as="geometry" />
        </mxCell>
        <mxCell id="uLtNfe8V0-7aoF6_B4Mz-35" value="7. Notificar rechazo al solicitante" style="whiteSpace=wrap;html=1;" vertex="1" parent="uLtNfe8V0-7aoF6_B4Mz-28">
          <mxGeometry x="27.5" y="514" width="120" height="60" as="geometry" />
        </mxCell>
        <mxCell id="uLtNfe8V0-7aoF6_B4Mz-36" value="8. Asignar recurso para cubrir vacaciones" style="whiteSpace=wrap;html=1;" vertex="1" parent="uLtNfe8V0-7aoF6_B4Mz-28">
          <mxGeometry x="160" y="514" width="120" height="60" as="geometry" />
        </mxCell>
        <mxCell id="uLtNfe8V0-7aoF6_B4Mz-37" value="10. Enviar formulario para aprobación de recursos humanos" style="whiteSpace=wrap;html=1;" vertex="1" parent="uLtNfe8V0-7aoF6_B4Mz-28">
          <mxGeometry x="160" y="700" width="120" height="60" as="geometry" />
        </mxCell>
        <mxCell id="uLtNfe8V0-7aoF6_B4Mz-38" value="9.Notificar al recurso designado" style="whiteSpace=wrap;html=1;" vertex="1" parent="uLtNfe8V0-7aoF6_B4Mz-28">
          <mxGeometry x="160" y="604" width="120" height="60" as="geometry" />
        </mxCell>
        <mxCell id="uLtNfe8V0-7aoF6_B4Mz-39" value="" style="edgeStyle=orthogonalEdgeStyle;rounded=0;orthogonalLoop=1;jettySize=auto;html=1;" edge="1" parent="uLtNfe8V0-7aoF6_B4Mz-28" source="uLtNfe8V0-7aoF6_B4Mz-36" target="uLtNfe8V0-7aoF6_B4Mz-38">
          <mxGeometry relative="1" as="geometry" />
        </mxCell>
        <mxCell id="uLtNfe8V0-7aoF6_B4Mz-40" value="" style="edgeStyle=orthogonalEdgeStyle;rounded=0;orthogonalLoop=1;jettySize=auto;html=1;exitX=0.5;exitY=1;exitDx=0;exitDy=0;" edge="1" parent="uLtNfe8V0-7aoF6_B4Mz-28" source="uLtNfe8V0-7aoF6_B4Mz-38" target="uLtNfe8V0-7aoF6_B4Mz-37">
          <mxGeometry relative="1" as="geometry" />
        </mxCell>
        <mxCell id="uLtNfe8V0-7aoF6_B4Mz-41" value="" style="points=[[0.145,0.145,0],[0.5,0,0],[0.855,0.145,0],[1,0.5,0],[0.855,0.855,0],[0.5,1,0],[0.145,0.855,0],[0,0.5,0]];shape=mxgraph.bpmn.event;html=1;verticalLabelPosition=bottom;labelBackgroundColor=#ffffff;verticalAlign=top;align=center;perimeter=ellipsePerimeter;outlineConnect=0;aspect=fixed;outline=end;symbol=terminate;" vertex="1" parent="uLtNfe8V0-7aoF6_B4Mz-28">
          <mxGeometry x="62.5" y="609" width="50" height="50" as="geometry" />
        </mxCell>
        <mxCell id="uLtNfe8V0-7aoF6_B4Mz-42" value="" style="edgeStyle=orthogonalEdgeStyle;rounded=0;orthogonalLoop=1;jettySize=auto;html=1;" edge="1" parent="uLtNfe8V0-7aoF6_B4Mz-2" source="uLtNfe8V0-7aoF6_B4Mz-5" target="uLtNfe8V0-7aoF6_B4Mz-11">
          <mxGeometry relative="1" as="geometry" />
        </mxCell>
        <mxCell id="uLtNfe8V0-7aoF6_B4Mz-43" value="" style="edgeStyle=orthogonalEdgeStyle;rounded=0;orthogonalLoop=1;jettySize=auto;html=1;entryX=0.5;entryY=0;entryDx=0;entryDy=0;exitX=0.5;exitY=1;exitDx=0;exitDy=0;" edge="1" parent="uLtNfe8V0-7aoF6_B4Mz-2" source="uLtNfe8V0-7aoF6_B4Mz-11" target="uLtNfe8V0-7aoF6_B4Mz-7">
          <mxGeometry relative="1" as="geometry" />
        </mxCell>
        <mxCell id="uLtNfe8V0-7aoF6_B4Mz-44" value="" style="edgeStyle=orthogonalEdgeStyle;rounded=0;orthogonalLoop=1;jettySize=auto;html=1;" edge="1" parent="uLtNfe8V0-7aoF6_B4Mz-2" source="uLtNfe8V0-7aoF6_B4Mz-8" target="uLtNfe8V0-7aoF6_B4Mz-30">
          <mxGeometry relative="1" as="geometry" />
        </mxCell>
        <mxCell id="uLtNfe8V0-7aoF6_B4Mz-45" value="" style="edgeStyle=orthogonalEdgeStyle;rounded=0;orthogonalLoop=1;jettySize=auto;html=1;exitX=0.5;exitY=1;exitDx=0;exitDy=0;" edge="1" parent="uLtNfe8V0-7aoF6_B4Mz-2" source="uLtNfe8V0-7aoF6_B4Mz-37" target="uLtNfe8V0-7aoF6_B4Mz-13">
          <mxGeometry relative="1" as="geometry" />
        </mxCell>
        <mxCell id="uLtNfe8V0-7aoF6_B4Mz-46" value="Contabilidad" style="swimlane;startSize=20;html=1;fillColor=#FFC000;" vertex="1" parent="uLtNfe8V0-7aoF6_B4Mz-2">
          <mxGeometry x="775" y="20" width="175" height="1430" as="geometry" />
        </mxCell>
        <mxCell id="uLtNfe8V0-7aoF6_B4Mz-47" value="Proceso de pago de vacaciones - CN_PR_17" style="shape=offPageConnector;whiteSpace=wrap;html=1;fillColor=#f5f5f5;strokeColor=#666666;fontColor=#333333;" vertex="1" parent="uLtNfe8V0-7aoF6_B4Mz-46">
          <mxGeometry x="47.5" y="1266" width="80" height="80" as="geometry" />
        </mxCell>
        <mxCell id="uLtNfe8V0-7aoF6_B4Mz-48" style="edgeStyle=orthogonalEdgeStyle;rounded=0;orthogonalLoop=1;jettySize=auto;html=1;exitX=1;exitY=0.5;exitDx=0;exitDy=0;" edge="1" parent="uLtNfe8V0-7aoF6_B4Mz-2" source="uLtNfe8V0-7aoF6_B4Mz-22" target="uLtNfe8V0-7aoF6_B4Mz-47">
          <mxGeometry relative="1" as="geometry" />
        </mxCell>
      </root>
    </mxGraphModel>
  </diagram>
  <diagram id="kvJcVlHsgb67p0gqB0jY" name="BPMN">
    <mxGraphModel dx="1434" dy="772" grid="1" gridSize="10" guides="1" tooltips="1" connect="1" arrows="1" fold="1" page="1" pageScale="1" pageWidth="850" pageHeight="1100" math="0" shadow="0">
      <root>
        <mxCell id="0" />
        <mxCell id="1" parent="0" />
        <mxCell id="gkJ-rwu06B4O1B5sf2sf-1" value="Solicitud de Vacaciones" style="swimlane;html=1;childLayout=stackLayout;resizeParent=1;resizeParentMax=0;horizontal=0;startSize=20;horizontalStack=0;whiteSpace=wrap;fillColor=#002060;fontColor=#FFFFFF;" vertex="1" parent="1">
          <mxGeometry x="30" y="50" width="1050" height="940" as="geometry" />
        </mxCell>
        <mxCell id="gkJ-rwu06B4O1B5sf2sf-2" value="Solicitante" style="swimlane;html=1;startSize=20;horizontal=0;fillColor=#ffc000;" vertex="1" parent="gkJ-rwu06B4O1B5sf2sf-1">
          <mxGeometry x="20" width="1030" height="150" as="geometry" />
        </mxCell>
        <mxCell id="Ud-lrtTlLmHaWPWpGFHr-2" value="1. Ingresar solicitud" style="points=[[0.25,0,0],[0.5,0,0],[0.75,0,0],[1,0.25,0],[1,0.5,0],[1,0.75,0],[0.75,1,0],[0.5,1,0],[0.25,1,0],[0,0.75,0],[0,0.5,0],[0,0.25,0]];shape=mxgraph.bpmn.task;whiteSpace=wrap;rectStyle=rounded;size=10;html=1;container=1;expand=0;collapsible=0;taskMarker=user;" vertex="1" parent="gkJ-rwu06B4O1B5sf2sf-2">
          <mxGeometry x="120" y="20" width="120" height="80" as="geometry" />
        </mxCell>
        <mxCell id="Ud-lrtTlLmHaWPWpGFHr-3" value="Inicio" style="points=[[0.145,0.145,0],[0.5,0,0],[0.855,0.145,0],[1,0.5,0],[0.855,0.855,0],[0.5,1,0],[0.145,0.855,0],[0,0.5,0]];shape=mxgraph.bpmn.event;html=1;verticalLabelPosition=bottom;labelBackgroundColor=#ffffff;verticalAlign=top;align=center;perimeter=ellipsePerimeter;outlineConnect=0;aspect=fixed;outline=standard;symbol=general;" vertex="1" parent="gkJ-rwu06B4O1B5sf2sf-2">
          <mxGeometry x="40" y="40" width="40" height="40" as="geometry" />
        </mxCell>
        <mxCell id="Ud-lrtTlLmHaWPWpGFHr-4" style="edgeStyle=orthogonalEdgeStyle;rounded=0;orthogonalLoop=1;jettySize=auto;html=1;exitX=1;exitY=0.5;exitDx=0;exitDy=0;exitPerimeter=0;entryX=0;entryY=0.5;entryDx=0;entryDy=0;entryPerimeter=0;" edge="1" parent="gkJ-rwu06B4O1B5sf2sf-2" source="Ud-lrtTlLmHaWPWpGFHr-3" target="Ud-lrtTlLmHaWPWpGFHr-2">
          <mxGeometry relative="1" as="geometry" />
        </mxCell>
        <mxCell id="gkJ-rwu06B4O1B5sf2sf-3" value="Jefe del solicitante" style="swimlane;html=1;startSize=20;horizontal=0;fillColor=#ffc000;" vertex="1" parent="gkJ-rwu06B4O1B5sf2sf-1">
          <mxGeometry x="20" y="150" width="1030" height="170" as="geometry" />
        </mxCell>
        <mxCell id="j_FMnPhNPkVmYQSNHZZ--2" value="N1" style="points=[[0.145,0.145,0],[0.5,0,0],[0.855,0.145,0],[1,0.5,0],[0.855,0.855,0],[0.5,1,0],[0.145,0.855,0],[0,0.5,0]];shape=mxgraph.bpmn.event;html=1;verticalLabelPosition=middle;labelBackgroundColor=#ffffff;verticalAlign=middle;align=left;perimeter=ellipsePerimeter;outlineConnect=0;aspect=fixed;outline=eventNonint;symbol=message;labelPosition=right;" vertex="1" parent="gkJ-rwu06B4O1B5sf2sf-3">
          <mxGeometry x="165" y="10" width="30" height="30" as="geometry" />
        </mxCell>
        <mxCell id="aZbT4knNjW64BdgyKMcD-2" value="" style="edgeStyle=orthogonalEdgeStyle;rounded=0;orthogonalLoop=1;jettySize=auto;html=1;" edge="1" parent="gkJ-rwu06B4O1B5sf2sf-3" source="j_FMnPhNPkVmYQSNHZZ--4" target="aZbT4knNjW64BdgyKMcD-1">
          <mxGeometry relative="1" as="geometry" />
        </mxCell>
        <mxCell id="j_FMnPhNPkVmYQSNHZZ--4" value="2. Validar Solicitud Jefe" style="points=[[0.25,0,0],[0.5,0,0],[0.75,0,0],[1,0.25,0],[1,0.5,0],[1,0.75,0],[0.75,1,0],[0.5,1,0],[0.25,1,0],[0,0.75,0],[0,0.5,0],[0,0.25,0]];shape=mxgraph.bpmn.task;whiteSpace=wrap;rectStyle=rounded;size=10;html=1;container=1;expand=0;collapsible=0;taskMarker=user;" vertex="1" parent="gkJ-rwu06B4O1B5sf2sf-3">
          <mxGeometry x="120" y="60" width="120" height="80" as="geometry" />
        </mxCell>
        <mxCell id="j_FMnPhNPkVmYQSNHZZ--5" style="edgeStyle=orthogonalEdgeStyle;rounded=0;orthogonalLoop=1;jettySize=auto;html=1;exitX=0.5;exitY=1;exitDx=0;exitDy=0;exitPerimeter=0;entryX=0.5;entryY=0.117;entryDx=0;entryDy=0;entryPerimeter=0;" edge="1" parent="gkJ-rwu06B4O1B5sf2sf-3" source="j_FMnPhNPkVmYQSNHZZ--2" target="j_FMnPhNPkVmYQSNHZZ--4">
          <mxGeometry relative="1" as="geometry" />
        </mxCell>
        <mxCell id="UczQOIG1fySrePCpYZcV-7" value="" style="edgeStyle=orthogonalEdgeStyle;rounded=0;orthogonalLoop=1;jettySize=auto;html=1;" edge="1" parent="gkJ-rwu06B4O1B5sf2sf-3" source="UczQOIG1fySrePCpYZcV-25" target="UczQOIG1fySrePCpYZcV-8">
          <mxGeometry relative="1" as="geometry">
            <mxPoint x="420" y="100" as="targetPoint" />
          </mxGeometry>
        </mxCell>
        <mxCell id="aZbT4knNjW64BdgyKMcD-1" value="¿Aprueba?" style="rhombus;whiteSpace=wrap;html=1;align=center;verticalAlign=bottom;labelPosition=center;verticalLabelPosition=top;" vertex="1" parent="gkJ-rwu06B4O1B5sf2sf-3">
          <mxGeometry x="320" y="80" width="40" height="40" as="geometry" />
        </mxCell>
        <mxCell id="UczQOIG1fySrePCpYZcV-8" value="Fin Rechazo 1" style="points=[[0.145,0.145,0],[0.5,0,0],[0.855,0.145,0],[1,0.5,0],[0.855,0.855,0],[0.5,1,0],[0.145,0.855,0],[0,0.5,0]];shape=mxgraph.bpmn.event;html=1;verticalLabelPosition=bottom;labelBackgroundColor=#ffffff;verticalAlign=top;align=center;perimeter=ellipsePerimeter;outlineConnect=0;aspect=fixed;outline=end;symbol=terminate;" vertex="1" parent="gkJ-rwu06B4O1B5sf2sf-3">
          <mxGeometry x="580" y="80" width="40" height="40" as="geometry" />
        </mxCell>
        <mxCell id="UczQOIG1fySrePCpYZcV-25" value="N2" style="points=[[0.145,0.145,0],[0.5,0,0],[0.855,0.145,0],[1,0.5,0],[0.855,0.855,0],[0.5,1,0],[0.145,0.855,0],[0,0.5,0]];shape=mxgraph.bpmn.event;html=1;verticalLabelPosition=top;labelBackgroundColor=#ffffff;verticalAlign=bottom;align=center;perimeter=ellipsePerimeter;outlineConnect=0;aspect=fixed;outline=eventNonint;symbol=message;labelPosition=center;" vertex="1" parent="gkJ-rwu06B4O1B5sf2sf-3">
          <mxGeometry x="459" y="85" width="30" height="30" as="geometry" />
        </mxCell>
        <mxCell id="UczQOIG1fySrePCpYZcV-27" value="No" style="edgeStyle=orthogonalEdgeStyle;rounded=0;orthogonalLoop=1;jettySize=auto;html=1;" edge="1" parent="gkJ-rwu06B4O1B5sf2sf-3" source="aZbT4knNjW64BdgyKMcD-1" target="UczQOIG1fySrePCpYZcV-25">
          <mxGeometry relative="1" as="geometry">
            <mxPoint x="410" y="300" as="sourcePoint" />
            <mxPoint x="580" y="300" as="targetPoint" />
          </mxGeometry>
        </mxCell>
        <mxCell id="gkJ-rwu06B4O1B5sf2sf-4" value="Gerente de área" style="swimlane;html=1;startSize=20;horizontal=0;fillColor=#ffc000;" vertex="1" parent="gkJ-rwu06B4O1B5sf2sf-1">
          <mxGeometry x="20" y="320" width="1030" height="210" as="geometry" />
        </mxCell>
        <mxCell id="UczQOIG1fySrePCpYZcV-17" value="" style="edgeStyle=orthogonalEdgeStyle;rounded=0;orthogonalLoop=1;jettySize=auto;html=1;" edge="1" parent="gkJ-rwu06B4O1B5sf2sf-4" source="UczQOIG1fySrePCpYZcV-1" target="UczQOIG1fySrePCpYZcV-11">
          <mxGeometry relative="1" as="geometry" />
        </mxCell>
        <mxCell id="UczQOIG1fySrePCpYZcV-1" value="3. Validar Solicitud Gerente" style="points=[[0.25,0,0],[0.5,0,0],[0.75,0,0],[1,0.25,0],[1,0.5,0],[1,0.75,0],[0.75,1,0],[0.5,1,0],[0.25,1,0],[0,0.75,0],[0,0.5,0],[0,0.25,0]];shape=mxgraph.bpmn.task;whiteSpace=wrap;rectStyle=rounded;size=10;html=1;container=1;expand=0;collapsible=0;taskMarker=user;" vertex="1" parent="gkJ-rwu06B4O1B5sf2sf-4">
          <mxGeometry x="286" y="70" width="120" height="80" as="geometry" />
        </mxCell>
        <mxCell id="UczQOIG1fySrePCpYZcV-3" value="N3" style="points=[[0.145,0.145,0],[0.5,0,0],[0.855,0.145,0],[1,0.5,0],[0.855,0.855,0],[0.5,1,0],[0.145,0.855,0],[0,0.5,0]];shape=mxgraph.bpmn.event;html=1;verticalLabelPosition=middle;labelBackgroundColor=#ffffff;verticalAlign=middle;align=left;perimeter=ellipsePerimeter;outlineConnect=0;aspect=fixed;outline=eventNonint;symbol=message;labelPosition=right;" vertex="1" parent="gkJ-rwu06B4O1B5sf2sf-4">
          <mxGeometry x="325" y="10" width="30" height="30" as="geometry" />
        </mxCell>
        <mxCell id="UczQOIG1fySrePCpYZcV-5" style="edgeStyle=orthogonalEdgeStyle;rounded=0;orthogonalLoop=1;jettySize=auto;html=1;exitX=0.5;exitY=1;exitDx=0;exitDy=0;exitPerimeter=0;entryX=0.45;entryY=-0.062;entryDx=0;entryDy=0;entryPerimeter=0;" edge="1" parent="gkJ-rwu06B4O1B5sf2sf-4" source="UczQOIG1fySrePCpYZcV-3" target="UczQOIG1fySrePCpYZcV-1">
          <mxGeometry relative="1" as="geometry" />
        </mxCell>
        <mxCell id="UczQOIG1fySrePCpYZcV-11" value="¿Aprueba?" style="rhombus;whiteSpace=wrap;html=1;align=center;verticalAlign=bottom;labelPosition=center;verticalLabelPosition=top;" vertex="1" parent="gkJ-rwu06B4O1B5sf2sf-4">
          <mxGeometry x="454" y="90" width="40" height="40" as="geometry" />
        </mxCell>
        <mxCell id="UczQOIG1fySrePCpYZcV-33" value="" style="edgeStyle=orthogonalEdgeStyle;rounded=0;orthogonalLoop=1;jettySize=auto;html=1;" edge="1" parent="gkJ-rwu06B4O1B5sf2sf-4" source="UczQOIG1fySrePCpYZcV-35" target="UczQOIG1fySrePCpYZcV-34">
          <mxGeometry relative="1" as="geometry">
            <mxPoint x="550" y="110" as="targetPoint" />
          </mxGeometry>
        </mxCell>
        <mxCell id="UczQOIG1fySrePCpYZcV-34" value="Fin Rechazo 2" style="points=[[0.145,0.145,0],[0.5,0,0],[0.855,0.145,0],[1,0.5,0],[0.855,0.855,0],[0.5,1,0],[0.145,0.855,0],[0,0.5,0]];shape=mxgraph.bpmn.event;html=1;verticalLabelPosition=bottom;labelBackgroundColor=#ffffff;verticalAlign=top;align=center;perimeter=ellipsePerimeter;outlineConnect=0;aspect=fixed;outline=end;symbol=terminate;" vertex="1" parent="gkJ-rwu06B4O1B5sf2sf-4">
          <mxGeometry x="710" y="90" width="40" height="40" as="geometry" />
        </mxCell>
        <mxCell id="UczQOIG1fySrePCpYZcV-35" value="N4" style="points=[[0.145,0.145,0],[0.5,0,0],[0.855,0.145,0],[1,0.5,0],[0.855,0.855,0],[0.5,1,0],[0.145,0.855,0],[0,0.5,0]];shape=mxgraph.bpmn.event;html=1;verticalLabelPosition=top;labelBackgroundColor=#ffffff;verticalAlign=bottom;align=center;perimeter=ellipsePerimeter;outlineConnect=0;aspect=fixed;outline=eventNonint;symbol=message;labelPosition=center;" vertex="1" parent="gkJ-rwu06B4O1B5sf2sf-4">
          <mxGeometry x="589" y="95" width="30" height="30" as="geometry" />
        </mxCell>
        <mxCell id="UczQOIG1fySrePCpYZcV-36" value="No" style="edgeStyle=orthogonalEdgeStyle;rounded=0;orthogonalLoop=1;jettySize=auto;html=1;" edge="1" parent="gkJ-rwu06B4O1B5sf2sf-4" target="UczQOIG1fySrePCpYZcV-35">
          <mxGeometry relative="1" as="geometry">
            <mxPoint x="490" y="110" as="sourcePoint" />
            <mxPoint x="710" y="310" as="targetPoint" />
          </mxGeometry>
        </mxCell>
        <mxCell id="j_FMnPhNPkVmYQSNHZZ--3" style="edgeStyle=orthogonalEdgeStyle;rounded=0;orthogonalLoop=1;jettySize=auto;html=1;exitX=0.5;exitY=1;exitDx=0;exitDy=0;exitPerimeter=0;entryX=0.5;entryY=0;entryDx=0;entryDy=0;entryPerimeter=0;" edge="1" parent="gkJ-rwu06B4O1B5sf2sf-1" source="Ud-lrtTlLmHaWPWpGFHr-2" target="j_FMnPhNPkVmYQSNHZZ--2">
          <mxGeometry relative="1" as="geometry" />
        </mxCell>
        <mxCell id="UczQOIG1fySrePCpYZcV-4" value="Si" style="edgeStyle=orthogonalEdgeStyle;rounded=0;orthogonalLoop=1;jettySize=auto;html=1;exitX=0.5;exitY=1;exitDx=0;exitDy=0;" edge="1" parent="gkJ-rwu06B4O1B5sf2sf-1" source="aZbT4knNjW64BdgyKMcD-1" target="UczQOIG1fySrePCpYZcV-3">
          <mxGeometry relative="1" as="geometry" />
        </mxCell>
        <mxCell id="UczQOIG1fySrePCpYZcV-16" value="Si" style="edgeStyle=orthogonalEdgeStyle;rounded=0;orthogonalLoop=1;jettySize=auto;html=1;exitX=0.5;exitY=1;exitDx=0;exitDy=0;" edge="1" parent="gkJ-rwu06B4O1B5sf2sf-1" source="UczQOIG1fySrePCpYZcV-11" target="UczQOIG1fySrePCpYZcV-14">
          <mxGeometry relative="1" as="geometry" />
        </mxCell>
        <mxCell id="Ud-lrtTlLmHaWPWpGFHr-1" value="Recursos Humanos" style="swimlane;html=1;startSize=20;horizontal=0;fillColor=#ffc000;" vertex="1" parent="gkJ-rwu06B4O1B5sf2sf-1">
          <mxGeometry x="20" y="530" width="1030" height="410" as="geometry" />
        </mxCell>
        <mxCell id="UczQOIG1fySrePCpYZcV-59" value="Opcional" style="points=[[0.25,0,0],[0.5,0,0],[0.75,0,0],[1,0.25,0],[1,0.5,0],[1,0.75,0],[0.75,1,0],[0.5,1,0],[0.25,1,0],[0,0.75,0],[0,0.5,0],[0,0.25,0]];rounded=1;arcSize=10;dashed=1;strokeColor=#d6b656;fillColor=#fff2cc;dashPattern=8 3 1 3;strokeWidth=2;whiteSpace=wrap;html=1;labelPosition=center;verticalLabelPosition=bottom;align=center;verticalAlign=top;" vertex="1" parent="Ud-lrtTlLmHaWPWpGFHr-1">
          <mxGeometry x="540" y="180" width="330" height="200" as="geometry" />
        </mxCell>
        <mxCell id="UczQOIG1fySrePCpYZcV-19" value="" style="edgeStyle=orthogonalEdgeStyle;rounded=0;orthogonalLoop=1;jettySize=auto;html=1;entryX=0;entryY=0.5;entryDx=0;entryDy=0;" edge="1" parent="Ud-lrtTlLmHaWPWpGFHr-1" source="UczQOIG1fySrePCpYZcV-13" target="UczQOIG1fySrePCpYZcV-21">
          <mxGeometry relative="1" as="geometry">
            <mxPoint x="590" y="150" as="targetPoint" />
          </mxGeometry>
        </mxCell>
        <mxCell id="UczQOIG1fySrePCpYZcV-13" value="4. Validar Solicitud RRHH" style="points=[[0.25,0,0],[0.5,0,0],[0.75,0,0],[1,0.25,0],[1,0.5,0],[1,0.75,0],[0.75,1,0],[0.5,1,0],[0.25,1,0],[0,0.75,0],[0,0.5,0],[0,0.25,0]];shape=mxgraph.bpmn.task;whiteSpace=wrap;rectStyle=rounded;size=10;html=1;container=1;expand=0;collapsible=0;taskMarker=user;" vertex="1" parent="Ud-lrtTlLmHaWPWpGFHr-1">
          <mxGeometry x="420" y="80" width="120" height="80" as="geometry" />
        </mxCell>
        <mxCell id="UczQOIG1fySrePCpYZcV-14" value="N5" style="points=[[0.145,0.145,0],[0.5,0,0],[0.855,0.145,0],[1,0.5,0],[0.855,0.855,0],[0.5,1,0],[0.145,0.855,0],[0,0.5,0]];shape=mxgraph.bpmn.event;html=1;verticalLabelPosition=middle;labelBackgroundColor=#ffffff;verticalAlign=middle;align=left;perimeter=ellipsePerimeter;outlineConnect=0;aspect=fixed;outline=eventNonint;symbol=message;labelPosition=right;" vertex="1" parent="Ud-lrtTlLmHaWPWpGFHr-1">
          <mxGeometry x="459" y="20" width="30" height="30" as="geometry" />
        </mxCell>
        <mxCell id="UczQOIG1fySrePCpYZcV-15" style="edgeStyle=orthogonalEdgeStyle;rounded=0;orthogonalLoop=1;jettySize=auto;html=1;exitX=0.5;exitY=1;exitDx=0;exitDy=0;exitPerimeter=0;entryX=0.45;entryY=-0.062;entryDx=0;entryDy=0;entryPerimeter=0;" edge="1" parent="Ud-lrtTlLmHaWPWpGFHr-1" source="UczQOIG1fySrePCpYZcV-14" target="UczQOIG1fySrePCpYZcV-13">
          <mxGeometry relative="1" as="geometry" />
        </mxCell>
        <mxCell id="UczQOIG1fySrePCpYZcV-21" value="¿Aprueba?" style="rhombus;whiteSpace=wrap;html=1;align=center;verticalAlign=bottom;labelPosition=center;verticalLabelPosition=top;" vertex="1" parent="Ud-lrtTlLmHaWPWpGFHr-1">
          <mxGeometry x="610" y="100" width="40" height="40" as="geometry" />
        </mxCell>
        <mxCell id="UczQOIG1fySrePCpYZcV-24" value="Si" style="edgeStyle=orthogonalEdgeStyle;rounded=0;orthogonalLoop=1;jettySize=auto;html=1;exitX=0.5;exitY=1;exitDx=0;exitDy=0;entryX=0.5;entryY=0;entryDx=0;entryDy=0;entryPerimeter=0;" edge="1" parent="Ud-lrtTlLmHaWPWpGFHr-1" source="UczQOIG1fySrePCpYZcV-21" target="UczQOIG1fySrePCpYZcV-47">
          <mxGeometry relative="1" as="geometry">
            <mxPoint x="510" y="200" as="targetPoint" />
            <Array as="points">
              <mxPoint x="630" y="165" />
              <mxPoint x="631" y="165" />
            </Array>
          </mxGeometry>
        </mxCell>
        <mxCell id="UczQOIG1fySrePCpYZcV-37" value="" style="edgeStyle=orthogonalEdgeStyle;rounded=0;orthogonalLoop=1;jettySize=auto;html=1;" edge="1" parent="Ud-lrtTlLmHaWPWpGFHr-1" source="UczQOIG1fySrePCpYZcV-39" target="UczQOIG1fySrePCpYZcV-38">
          <mxGeometry relative="1" as="geometry">
            <mxPoint x="710" y="120" as="targetPoint" />
          </mxGeometry>
        </mxCell>
        <mxCell id="UczQOIG1fySrePCpYZcV-38" value="Fin Rechazo 3" style="points=[[0.145,0.145,0],[0.5,0,0],[0.855,0.145,0],[1,0.5,0],[0.855,0.855,0],[0.5,1,0],[0.145,0.855,0],[0,0.5,0]];shape=mxgraph.bpmn.event;html=1;verticalLabelPosition=bottom;labelBackgroundColor=#ffffff;verticalAlign=top;align=center;perimeter=ellipsePerimeter;outlineConnect=0;aspect=fixed;outline=end;symbol=terminate;" vertex="1" parent="Ud-lrtTlLmHaWPWpGFHr-1">
          <mxGeometry x="870" y="100" width="40" height="40" as="geometry" />
        </mxCell>
        <mxCell id="UczQOIG1fySrePCpYZcV-39" value="N6" style="points=[[0.145,0.145,0],[0.5,0,0],[0.855,0.145,0],[1,0.5,0],[0.855,0.855,0],[0.5,1,0],[0.145,0.855,0],[0,0.5,0]];shape=mxgraph.bpmn.event;html=1;verticalLabelPosition=top;labelBackgroundColor=#ffffff;verticalAlign=bottom;align=center;perimeter=ellipsePerimeter;outlineConnect=0;aspect=fixed;outline=eventNonint;symbol=message;labelPosition=center;" vertex="1" parent="Ud-lrtTlLmHaWPWpGFHr-1">
          <mxGeometry x="749" y="105" width="30" height="30" as="geometry" />
        </mxCell>
        <mxCell id="UczQOIG1fySrePCpYZcV-40" value="No" style="edgeStyle=orthogonalEdgeStyle;rounded=0;orthogonalLoop=1;jettySize=auto;html=1;exitX=1;exitY=0.5;exitDx=0;exitDy=0;" edge="1" parent="Ud-lrtTlLmHaWPWpGFHr-1" target="UczQOIG1fySrePCpYZcV-39" source="UczQOIG1fySrePCpYZcV-21">
          <mxGeometry relative="1" as="geometry">
            <mxPoint x="700" y="120" as="sourcePoint" />
            <mxPoint x="870" y="320" as="targetPoint" />
          </mxGeometry>
        </mxCell>
        <mxCell id="UczQOIG1fySrePCpYZcV-45" value="Registro pago anticipado por vacaciones" style="points=[[0.25,0,0],[0.5,0,0],[0.75,0,0],[1,0.25,0],[1,0.5,0],[1,0.75,0],[0.75,1,0],[0.5,1,0],[0.25,1,0],[0,0.75,0],[0,0.5,0],[0,0.25,0]];shape=mxgraph.bpmn.task;whiteSpace=wrap;rectStyle=rounded;size=10;html=1;container=1;expand=0;collapsible=0;taskMarker=abstract;bpmnShapeType=subprocess;isLoopSub=1;outline=eventNonint;symbol=signal;" vertex="1" parent="Ud-lrtTlLmHaWPWpGFHr-1">
          <mxGeometry x="570" y="270" width="120" height="80" as="geometry" />
        </mxCell>
        <mxCell id="UczQOIG1fySrePCpYZcV-51" style="edgeStyle=orthogonalEdgeStyle;rounded=0;orthogonalLoop=1;jettySize=auto;html=1;exitX=1;exitY=0.5;exitDx=0;exitDy=0;exitPerimeter=0;" edge="1" parent="Ud-lrtTlLmHaWPWpGFHr-1" source="UczQOIG1fySrePCpYZcV-47">
          <mxGeometry relative="1" as="geometry">
            <mxPoint x="840" y="250" as="targetPoint" />
          </mxGeometry>
        </mxCell>
        <mxCell id="UczQOIG1fySrePCpYZcV-47" value="" style="points=[[0.25,0.25,0],[0.5,0,0],[0.75,0.25,0],[1,0.5,0],[0.75,0.75,0],[0.5,1,0],[0.25,0.75,0],[0,0.5,0]];shape=mxgraph.bpmn.gateway2;html=1;verticalLabelPosition=bottom;labelBackgroundColor=#ffffff;verticalAlign=top;align=center;perimeter=rhombusPerimeter;outlineConnect=0;outline=none;symbol=none;gwType=parallel;aspect=fixed;" vertex="1" parent="Ud-lrtTlLmHaWPWpGFHr-1">
          <mxGeometry x="610" y="190" width="40" height="40" as="geometry" />
        </mxCell>
        <mxCell id="UczQOIG1fySrePCpYZcV-48" style="edgeStyle=orthogonalEdgeStyle;rounded=0;orthogonalLoop=1;jettySize=auto;html=1;exitX=0.5;exitY=1;exitDx=0;exitDy=0;exitPerimeter=0;entryX=0.5;entryY=0;entryDx=0;entryDy=0;entryPerimeter=0;" edge="1" parent="Ud-lrtTlLmHaWPWpGFHr-1" source="UczQOIG1fySrePCpYZcV-47" target="UczQOIG1fySrePCpYZcV-45">
          <mxGeometry relative="1" as="geometry" />
        </mxCell>
        <mxCell id="UczQOIG1fySrePCpYZcV-55" style="edgeStyle=orthogonalEdgeStyle;rounded=0;orthogonalLoop=1;jettySize=auto;html=1;exitX=1;exitY=0.5;exitDx=0;exitDy=0;exitPerimeter=0;" edge="1" parent="Ud-lrtTlLmHaWPWpGFHr-1" source="UczQOIG1fySrePCpYZcV-49" target="UczQOIG1fySrePCpYZcV-54">
          <mxGeometry relative="1" as="geometry" />
        </mxCell>
        <mxCell id="UczQOIG1fySrePCpYZcV-52" value="" style="points=[[0.25,0.25,0],[0.5,0,0],[0.75,0.25,0],[1,0.5,0],[0.75,0.75,0],[0.5,1,0],[0.25,0.75,0],[0,0.5,0]];shape=mxgraph.bpmn.gateway2;html=1;verticalLabelPosition=bottom;labelBackgroundColor=#ffffff;verticalAlign=top;align=center;perimeter=rhombusPerimeter;outlineConnect=0;outline=none;symbol=none;gwType=parallel;aspect=fixed;" vertex="1" parent="Ud-lrtTlLmHaWPWpGFHr-1">
          <mxGeometry x="820" y="250" width="40" height="40" as="geometry" />
        </mxCell>
        <mxCell id="UczQOIG1fySrePCpYZcV-54" value="Fin" style="points=[[0.145,0.145,0],[0.5,0,0],[0.855,0.145,0],[1,0.5,0],[0.855,0.855,0],[0.5,1,0],[0.145,0.855,0],[0,0.5,0]];shape=mxgraph.bpmn.event;html=1;verticalLabelPosition=bottom;labelBackgroundColor=#ffffff;verticalAlign=top;align=center;perimeter=ellipsePerimeter;outlineConnect=0;aspect=fixed;outline=end;symbol=terminate2;" vertex="1" parent="Ud-lrtTlLmHaWPWpGFHr-1">
          <mxGeometry x="970" y="250" width="40" height="40" as="geometry" />
        </mxCell>
        <mxCell id="UczQOIG1fySrePCpYZcV-57" style="edgeStyle=orthogonalEdgeStyle;rounded=0;orthogonalLoop=1;jettySize=auto;html=1;entryX=0.5;entryY=1;entryDx=0;entryDy=0;entryPerimeter=0;" edge="1" parent="Ud-lrtTlLmHaWPWpGFHr-1" source="UczQOIG1fySrePCpYZcV-45" target="UczQOIG1fySrePCpYZcV-52">
          <mxGeometry relative="1" as="geometry" />
        </mxCell>
        <mxCell id="UczQOIG1fySrePCpYZcV-58" value="" style="edgeStyle=orthogonalEdgeStyle;rounded=0;orthogonalLoop=1;jettySize=auto;html=1;exitX=1;exitY=0.5;exitDx=0;exitDy=0;exitPerimeter=0;" edge="1" parent="Ud-lrtTlLmHaWPWpGFHr-1" source="UczQOIG1fySrePCpYZcV-52" target="UczQOIG1fySrePCpYZcV-49">
          <mxGeometry relative="1" as="geometry">
            <mxPoint x="910" y="850" as="sourcePoint" />
            <mxPoint x="970" y="850" as="targetPoint" />
          </mxGeometry>
        </mxCell>
        <mxCell id="UczQOIG1fySrePCpYZcV-49" value="N7" style="points=[[0.145,0.145,0],[0.5,0,0],[0.855,0.145,0],[1,0.5,0],[0.855,0.855,0],[0.5,1,0],[0.145,0.855,0],[0,0.5,0]];shape=mxgraph.bpmn.event;html=1;verticalLabelPosition=top;labelBackgroundColor=#ffffff;verticalAlign=bottom;align=center;perimeter=ellipsePerimeter;outlineConnect=0;aspect=fixed;outline=eventNonint;symbol=message;labelPosition=center;" vertex="1" parent="Ud-lrtTlLmHaWPWpGFHr-1">
          <mxGeometry x="900" y="255" width="30" height="30" as="geometry" />
        </mxCell>
      </root>
    </mxGraphModel>
  </diagram>
</mxfile>
